# Blender v2.69 (sub 0) OBJ File: ''
# www.blender.org
g Barrel_Deep
v 0.000000 0.191391 0.335303
v 0.000000 -0.000000 0.287421
v 0.168942 -0.000000 0.232529
v 0.197086 0.191391 0.271266
v 0.273354 -0.000000 0.088818
v 0.318893 0.191391 0.103614
v 0.273354 0.000000 -0.088818
v 0.318893 0.191391 -0.103614
v 0.168942 0.000000 -0.232528
v 0.197086 0.191391 -0.271266
v 0.000000 0.000000 -0.287421
v 0.000000 0.191391 -0.335303
v -0.168942 0.000000 -0.232528
v -0.197086 0.191391 -0.271266
v -0.273354 0.000000 -0.088818
v -0.318892 0.191391 -0.103615
v -0.273354 -0.000000 0.088818
v -0.318892 0.191391 0.103614
v -0.197086 0.191391 0.271266
v -0.168942 -0.000000 0.232529
v 0.000000 0.000000 0.000000
v 0.000000 0.492901 0.264322
v 0.155365 0.492901 0.213841
v 0.000000 0.569640 0.000000
v 0.251385 0.492901 0.081680
v 0.251385 0.492901 -0.081680
v 0.155365 0.492901 -0.213841
v 0.000000 0.492901 -0.264322
v -0.155365 0.492901 -0.213841
v -0.251385 0.492901 -0.081680
v -0.251385 0.492901 0.081680
v -0.155365 0.492901 0.213841
v 0.000000 0.574172 0.335303
v 0.000000 0.382781 0.349776
v 0.205593 0.382781 0.282975
v 0.197086 0.574172 0.271266
v 0.332657 0.382781 0.108087
v 0.318893 0.574172 0.103614
v 0.332657 0.382781 -0.108087
v 0.318893 0.574172 -0.103615
v 0.205593 0.382781 -0.282975
v 0.197086 0.574172 -0.271266
v 0.000000 0.382781 -0.349776
v 0.000000 0.574172 -0.335303
v -0.205593 0.382781 -0.282975
v -0.197086 0.574172 -0.271266
v -0.332657 0.382781 -0.108087
v -0.318892 0.574172 -0.103615
v -0.332657 0.382781 0.108087
v -0.318892 0.574172 0.103614
v -0.197086 0.574172 0.271266
v -0.205593 0.382781 0.282975
v 0.000000 0.765563 0.287421
v 0.168942 0.765563 0.232528
v 0.273354 0.765563 0.088818
v 0.273354 0.765563 -0.088818
v 0.168942 0.765563 -0.232529
v 0.000000 0.765563 -0.287421
v -0.168942 0.765563 -0.232529
v -0.273354 0.765563 -0.088818
v -0.273354 0.765563 0.088818
v -0.168942 0.765563 0.232528
v 0.150055 0.784264 0.206533
v 0.000000 0.784264 0.255289
v 0.242795 0.784264 0.078889
v 0.242795 0.784264 -0.078889
v 0.150055 0.784264 -0.206534
v 0.000000 0.784264 -0.255289
v -0.150055 0.784264 -0.206534
v -0.242795 0.784264 -0.078889
v -0.242795 0.784264 0.078889
v -0.150055 0.784264 0.206533
v 0.000000 0.765563 0.226551
v 0.133164 0.765563 0.183283
v 0.152971 0.574172 0.210545
v 0.000000 0.574172 0.260249
v 0.215463 0.765563 0.070008
v 0.247512 0.574172 0.080421
v 0.215463 0.765563 -0.070008
v 0.247512 0.574172 -0.080421
v 0.133164 0.765563 -0.183284
v 0.152971 0.574172 -0.210546
v 0.000000 0.765563 -0.226551
v 0.000000 0.574172 -0.260249
v -0.133164 0.765563 -0.183284
v -0.152971 0.574172 -0.210546
v -0.215463 0.765563 -0.070008
v -0.247512 0.574172 -0.080421
v -0.215463 0.765563 0.070008
v -0.247512 0.574172 0.080421
v -0.133164 0.765563 0.183283
v -0.152971 0.574172 0.210545
vt 0.526156 0.400571
vt 0.552220 0.400571
vt 0.552220 0.422945
vt 0.526156 0.422945
vt 0.552220 0.443875
vt 0.525756 0.443875
vt 0.526156 0.336338
vt 0.552220 0.336338
vt 0.552220 0.357268
vt 0.526156 0.357268
vt 0.552220 0.378919
vt 0.526156 0.378919
vt 0.526156 0.443875
vt 0.978295 0.327240
vt 0.944794 0.338148
vt 0.944794 0.280884
vt 0.999330 0.298803
vt 0.911292 0.327240
vt 0.890257 0.298803
vt 0.890257 0.262965
vt 0.911292 0.234527
vt 0.944794 0.223620
vt 0.978295 0.234527
vt 0.999330 0.262965
vt 0.868835 0.293646
vt 0.853590 0.315273
vt 0.828418 0.280528
vt 0.828772 0.323073
vt 0.803599 0.314919
vt 0.788000 0.294001
vt 0.788354 0.267410
vt 0.803599 0.245783
vt 0.828418 0.237983
vt 0.853590 0.246138
vt 0.869190 0.267056
vt 0.473711 0.400571
vt 0.499693 0.400571
vt 0.499693 0.422945
vt 0.473711 0.422945
vt 0.499693 0.443875
vt 0.473711 0.443875
vt 0.473711 0.336338
vt 0.499693 0.336338
vt 0.499693 0.357268
vt 0.473711 0.357268
vt 0.499693 0.378919
vt 0.473711 0.378919
vt 0.444764 0.400571
vt 0.444764 0.422945
vt 0.444764 0.443875
vt 0.444764 0.336338
vt 0.444764 0.357268
vt 0.444764 0.378919
vt 0.944404 0.336979
vt 0.911292 0.326461
vt 0.915188 0.321397
vt 0.944404 0.331136
vt 0.890646 0.298024
vt 0.896879 0.296466
vt 0.890646 0.263354
vt 0.896879 0.265302
vt 0.911682 0.235306
vt 0.915188 0.239981
vt 0.944794 0.224788
vt 0.944794 0.231021
vt 0.978295 0.235306
vt 0.974399 0.239981
vt 0.998552 0.263354
vt 0.992709 0.265302
vt 0.998552 0.298024
vt 0.992318 0.296466
vt 0.977905 0.326461
vt 0.974010 0.321397
vt 0.471786 0.443634
vt 0.471786 0.422463
vt 0.497047 0.422463
vt 0.497047 0.443634
vt 0.471786 0.401052
vt 0.497047 0.401052
vt 0.471786 0.379401
vt 0.497047 0.379401
vt 0.471786 0.357989
vt 0.497047 0.357989
vt 0.471786 0.336819
vt 0.497047 0.336819
vt 0.522548 0.336819
vt 0.522548 0.357989
vt 0.522548 0.379401
vt 0.522548 0.401052
vt 0.522548 0.422463
vt 0.522548 0.443634
vt 0.988034 0.294518
vt 0.988424 0.266860
vt 0.971673 0.244266
vt 0.944794 0.235696
vt 0.917915 0.244266
vt 0.901164 0.266860
vt 0.901164 0.294518
vt 0.917525 0.317501
vt 0.944404 0.326072
vt 0.971283 0.317501
vn 0.000000 -0.157048 0.987579
vn 0.000000 -0.732292 0.680960
vn 0.400250 -0.732292 0.550890
vn 0.580462 -0.157048 0.798975
vn 0.647633 -0.732292 0.210425
vn 0.939238 -0.157048 0.305155
vn 0.647633 -0.732292 -0.210425
vn 0.939238 -0.157048 -0.305155
vn 0.400250 -0.732292 -0.550890
vn 0.580462 -0.157048 -0.798975
vn 0.000000 -0.732292 -0.680960
vn 0.000000 -0.157048 -0.987579
vn -0.400250 -0.732292 -0.550890
vn -0.580462 -0.157048 -0.798975
vn -0.647633 -0.732292 -0.210425
vn -0.939238 -0.157048 -0.305155
vn -0.647633 -0.732292 0.210425
vn -0.939238 -0.157048 0.305155
vn -0.580462 -0.157048 0.798975
vn -0.400250 -0.732292 0.550890
vn 0.000000 -0.999969 0.000000
vn 0.000000 0.711783 -0.702353
vn -0.412824 0.711783 -0.568224
vn 0.000000 0.999969 0.000000
vn -0.667989 0.711783 -0.217017
vn -0.667989 0.711783 0.217017
vn -0.412824 0.711783 0.568224
vn 0.000000 0.711783 0.702353
vn 0.412824 0.711783 0.568224
vn 0.667989 0.711783 0.217017
vn 0.667989 0.711783 -0.217017
vn 0.412824 0.711783 -0.568224
vn 0.000000 0.157048 0.987579
vn 0.000000 0.000000 1.000000
vn 0.587756 0.000000 0.809015
vn 0.580462 0.157048 0.798975
vn 0.951048 0.000000 0.309000
vn 0.939238 0.157048 0.305155
vn 0.951048 0.000000 -0.309000
vn 0.939238 0.157048 -0.305155
vn 0.587756 0.000000 -0.809015
vn 0.580462 0.157048 -0.798975
vn 0.000000 0.000000 -1.000000
vn 0.000000 0.157048 -0.987579
vn -0.587756 0.000000 -0.809015
vn -0.580462 0.157048 -0.798975
vn -0.951048 0.000000 -0.309000
vn -0.939238 0.157048 -0.305155
vn -0.951048 0.000000 0.309000
vn -0.939238 0.157048 0.305155
vn -0.580462 0.157048 0.798975
vn -0.587756 0.000000 0.809015
vn 0.000000 0.566363 0.824122
vn 0.484390 0.566363 0.666738
vn 0.783776 0.566363 0.254646
vn 0.783776 0.566363 -0.254646
vn 0.484390 0.566363 -0.666738
vn 0.000000 0.566363 -0.824122
vn -0.484390 0.566363 -0.666738
vn -0.783776 0.566363 -0.254646
vn -0.783776 0.566363 0.254646
vn -0.484390 0.566363 0.666738
vn 0.046663 0.996826 0.064211
vn 0.000000 0.996826 0.079379
vn 0.075503 0.996826 0.024506
vn 0.075503 0.996826 -0.024506
vn 0.046663 0.996826 -0.064211
vn 0.000000 0.996826 -0.079379
vn -0.046663 0.996826 -0.064211
vn -0.075503 0.996826 -0.024506
vn -0.075503 0.996826 0.024506
vn -0.046663 0.996826 0.064211
vn 0.000000 0.444441 -0.895779
vn -0.526536 0.444441 -0.724693
vn -0.584155 -0.110599 -0.804041
vn 0.000000 -0.110599 -0.993835
vn -0.851955 0.444441 -0.276803
vn -0.945219 -0.110599 -0.307108
vn -0.851955 0.444441 0.276803
vn -0.945219 -0.110599 0.307108
vn -0.526536 0.444441 0.724693
vn -0.584155 -0.110599 0.804041
vn 0.000000 0.444441 0.895779
vn 0.000000 -0.110599 0.993835
vn 0.526536 0.444441 0.724693
vn 0.584155 -0.110599 0.804041
vn 0.851955 0.444441 0.276803
vn 0.945219 -0.110599 0.307108
vn 0.851955 0.444441 -0.276803
vn 0.945219 -0.110599 -0.307108
vn 0.526536 0.444441 -0.724693
vn 0.584155 -0.110599 -0.804041
s 1
f 1/1/1 2/2/2 3/3/3 4/4/4
f 4/4/4 3/3/3 5/5/5 6/6/6
f 6/7/6 5/8/5 7/9/7 8/10/8
f 8/10/8 7/9/7 9/11/9 10/12/10
f 10/12/10 9/11/9 11/2/11 12/1/12
f 12/1/12 11/2/11 13/3/13 14/4/14
f 14/4/14 13/3/13 15/5/15 16/13/16
f 16/7/16 15/8/15 17/9/17 18/10/18
f 2/2/2 1/1/1 19/12/19 20/11/20
f 18/10/18 17/9/17 20/11/20 19/12/19
f 20/14/20 17/15/17 21/16/21
f 2/17/2 20/14/20 21/16/21
f 17/15/17 15/18/15 21/16/21
f 15/18/15 13/19/13 21/16/21
f 13/19/13 11/20/11 21/16/21
f 11/20/11 9/21/9 21/16/21
f 9/21/9 7/22/7 21/16/21
f 7/22/7 5/23/5 21/16/21
f 5/23/5 3/24/3 21/16/21
f 3/24/3 2/17/2 21/16/21
f 22/25/22 23/26/23 24/27/24
f 23/26/23 25/28/25 24/27/24
f 25/28/25 26/29/26 24/27/24
f 26/29/26 27/30/27 24/27/24
f 27/30/27 28/31/28 24/27/24
f 28/31/28 29/32/29 24/27/24
f 29/32/29 30/33/30 24/27/24
f 30/33/30 31/34/31 24/27/24
f 31/34/31 32/35/32 24/27/24
f 32/35/32 22/25/22 24/27/24
f 33/36/33 34/37/34 35/38/35 36/39/36
f 36/39/36 35/38/35 37/40/37 38/41/38
f 38/42/38 37/43/37 39/44/39 40/45/40
f 40/45/40 39/44/39 41/46/41 42/47/42
f 42/47/42 41/46/41 43/37/43 44/36/44
f 44/36/44 43/37/43 45/38/45 46/39/46
f 46/39/46 45/38/45 47/40/47 48/41/48
f 48/42/48 47/43/47 49/44/49 50/45/50
f 51/47/51 52/46/52 34/37/34 33/36/33
f 50/45/50 49/44/49 52/46/52 51/47/51
f 34/37/34 1/1/1 4/4/4 35/38/35
f 35/38/35 4/4/4 6/6/6 37/40/37
f 37/43/37 6/7/6 8/10/8 39/44/39
f 39/44/39 8/10/8 10/12/10 41/46/41
f 41/46/41 10/12/10 12/1/12 43/37/43
f 43/37/43 12/1/12 14/4/14 45/38/45
f 45/38/45 14/4/14 16/13/16 47/40/47
f 47/43/47 16/7/16 18/10/18 49/44/49
f 1/1/1 34/37/34 52/46/52 19/12/19
f 49/44/49 18/10/18 19/12/19 52/46/52
f 53/48/53 33/36/33 36/39/36 54/49/54
f 54/49/54 36/39/36 38/41/38 55/50/55
f 55/51/55 38/42/38 40/45/40 56/52/56
f 56/52/56 40/45/40 42/47/42 57/53/57
f 57/53/57 42/47/42 44/36/44 58/48/58
f 58/48/58 44/36/44 46/39/46 59/49/59
f 59/49/59 46/39/46 48/41/48 60/50/60
f 60/51/60 48/42/48 50/45/50 61/52/61
f 62/53/62 51/47/51 33/36/33 53/48/53
f 61/52/61 50/45/50 51/47/51 62/53/62
f 53/54/53 54/55/54 63/56/63 64/57/64
f 54/55/54 55/58/55 65/59/65 63/56/63
f 55/58/55 56/60/56 66/61/66 65/59/65
f 56/60/56 57/62/57 67/63/67 66/61/66
f 57/62/57 58/64/58 68/65/68 67/63/67
f 58/64/58 59/66/59 69/67/69 68/65/68
f 59/66/59 60/68/60 70/69/70 69/67/69
f 60/68/60 61/70/61 71/71/71 70/69/70
f 61/70/61 62/72/62 72/73/72 71/71/71
f 62/72/62 53/54/53 64/57/64 72/73/72
f 73/74/73 74/75/74 75/76/75 76/77/76
f 74/75/74 77/78/77 78/79/78 75/76/75
f 77/78/77 79/80/79 80/81/80 78/79/78
f 79/80/79 81/82/81 82/83/82 80/81/80
f 81/82/81 83/84/83 84/85/84 82/83/82
f 83/86/83 85/87/85 86/83/86 84/85/84
f 85/87/85 87/88/87 88/81/88 86/83/86
f 87/88/87 89/89/89 90/79/90 88/81/88
f 89/89/89 91/90/91 92/76/92 90/79/90
f 91/90/91 73/91/73 76/77/76 92/76/92
f 92/76/92 76/77/76 22/74/22 32/75/32
f 90/79/90 92/76/92 32/75/32 31/78/31
f 88/81/88 90/79/90 31/78/31 30/80/30
f 86/83/86 88/81/88 30/80/30 29/82/29
f 84/85/84 86/83/86 29/82/29 28/84/28
f 82/83/82 84/85/84 28/86/28 27/87/27
f 80/81/80 82/83/82 27/87/27 26/88/26
f 78/79/78 80/81/80 26/88/26 25/89/25
f 75/76/75 78/79/78 25/89/25 23/90/23
f 76/77/76 75/76/75 23/90/23 22/91/22
f 70/69/70 71/71/71 89/92/89 87/93/87
f 69/67/69 70/69/70 87/93/87 85/94/85
f 68/65/68 69/67/69 85/94/85 83/95/83
f 67/63/67 68/65/68 83/95/83 81/96/81
f 66/61/66 67/63/67 81/96/81 79/97/79
f 65/59/65 66/61/66 79/97/79 77/98/77
f 63/56/63 65/59/65 77/98/77 74/99/74
f 64/57/64 63/56/63 74/99/74 73/100/73
f 72/73/72 64/57/64 73/100/73 91/101/91
f 71/71/71 72/73/72 91/101/91 89/92/89
