# Blender v2.69 (sub 0) OBJ File: ''
# www.blender.org
g Bench
v 0.830095 0.472438 -0.233838
v 0.813733 0.542789 -0.196965
v 0.813733 0.542789 0.005849
v 0.830094 0.472372 -0.007811
v 0.406598 0.520732 -0.196965
v 0.406598 0.520732 0.005849
v 0.414849 0.450416 -0.233839
v 0.414848 0.450350 -0.007812
v 0.406598 0.520732 0.208664
v 0.414847 0.450284 0.218216
v 0.830093 0.472306 0.218217
v 0.813733 0.542789 0.208664
v 0.000000 0.505984 -0.196965
v 0.000000 0.505984 0.005849
v 0.000000 0.435162 -0.233840
v 0.000000 0.435096 -0.007813
v 0.000000 0.505984 0.208664
v 0.000000 0.435030 0.218214
v 0.631486 -0.000000 0.264313
v 0.760772 -0.000000 0.334279
v 0.786591 0.117587 0.326414
v 0.652129 0.117583 0.258061
v 0.650209 0.470716 0.217391
v 0.784188 0.470718 0.275247
v 0.784189 0.470798 0.012971
v 0.650209 0.470796 0.008924
v 0.652132 0.117835 -0.251930
v 0.786593 0.117838 -0.315213
v 0.760772 0.000000 -0.282652
v 0.631486 0.000000 -0.226050
v 0.921052 0.117590 0.258062
v 0.890058 -0.000000 0.264313
v 0.890058 -0.000000 0.019132
v 0.921053 0.117716 0.003067
v 0.652131 0.117709 0.003065
v 0.631486 -0.000000 0.019132
v 0.667519 0.352905 0.236669
v 0.667521 0.353111 -0.007143
v 0.650210 0.470876 -0.199543
v 0.784190 0.470878 -0.249304
v 0.805843 0.353322 -0.313983
v 0.667523 0.353317 -0.250954
v 0.918169 0.470799 0.008925
v 0.918168 0.470720 0.217391
v 0.944158 0.352915 0.236671
v 0.944160 0.353121 -0.007140
v 0.805838 0.352910 0.299502
v 0.672773 0.235167 0.251809
v 0.672775 0.235419 -0.013001
v 0.812415 0.235676 -0.347773
v 0.672778 0.235670 -0.277811
v 0.952046 0.235179 0.251812
v 0.952048 0.235431 -0.012998
v 0.812409 0.235173 0.318550
v 0.890058 0.000000 -0.226050
v 0.921055 0.117841 -0.251929
v 0.952051 0.235683 -0.277808
v 0.944163 0.353327 -0.250951
v 0.918170 0.470880 -0.199542
v -0.830095 0.472438 -0.233838
v -0.830094 0.472372 -0.007811
v -0.813733 0.542789 0.005849
v -0.813733 0.542789 -0.196965
v -0.406598 0.520732 0.005849
v -0.406598 0.520732 -0.196965
v -0.414849 0.450416 -0.233839
v -0.414848 0.450350 -0.007812
v -0.406598 0.520732 0.208664
v -0.813733 0.542789 0.208664
v -0.830093 0.472306 0.218217
v -0.414847 0.450284 0.218216
v -0.631486 -0.000000 0.264313
v -0.652129 0.117583 0.258061
v -0.786591 0.117587 0.326414
v -0.760772 -0.000000 0.334279
v -0.650209 0.470716 0.217391
v -0.650209 0.470796 0.008924
v -0.784189 0.470798 0.012971
v -0.784188 0.470718 0.275247
v -0.652132 0.117835 -0.251930
v -0.631486 0.000000 -0.226050
v -0.760772 0.000000 -0.282652
v -0.786593 0.117838 -0.315213
v -0.921052 0.117590 0.258062
v -0.921053 0.117716 0.003067
v -0.890058 -0.000000 0.019132
v -0.890058 -0.000000 0.264313
v -0.631486 -0.000000 0.019132
v -0.652131 0.117709 0.003065
v -0.667519 0.352905 0.236669
v -0.667521 0.353111 -0.007143
v -0.650210 0.470876 -0.199543
v -0.667523 0.353317 -0.250954
v -0.805843 0.353322 -0.313983
v -0.784190 0.470878 -0.249304
v -0.918169 0.470799 0.008925
v -0.944160 0.353121 -0.007140
v -0.944158 0.352915 0.236671
v -0.918168 0.470720 0.217391
v -0.805838 0.352910 0.299502
v -0.672773 0.235167 0.251809
v -0.672775 0.235419 -0.013001
v -0.672778 0.235670 -0.277811
v -0.812415 0.235676 -0.347773
v -0.952048 0.235431 -0.012998
v -0.952046 0.235179 0.251812
v -0.812409 0.235173 0.318550
v -0.921055 0.117841 -0.251929
v -0.890058 0.000000 -0.226050
v -0.952051 0.235683 -0.277808
v -0.944163 0.353327 -0.250951
v -0.918170 0.470880 -0.199542
vt 0.544922 0.444824
vt 0.544922 0.453125
vt 0.502930 0.453125
vt 0.502930 0.444824
vt 0.544922 0.507324
vt 0.502930 0.507324
vt 0.561035 0.453125
vt 0.561035 0.507324
vt 0.556641 0.508789
vt 0.556641 0.550293
vt 0.504883 0.550293
vt 0.504883 0.508789
vt 0.460449 0.507324
vt 0.446289 0.507324
vt 0.446289 0.453125
vt 0.460938 0.453125
vt 0.544922 0.560059
vt 0.502930 0.560059
vt 0.561035 0.560059
vt 0.556641 0.467285
vt 0.504883 0.467285
vt 0.460938 0.560059
vt 0.446289 0.560059
vt 0.460938 0.444824
vt 0.451172 0.508789
vt 0.451172 0.550293
vt 0.451172 0.467285
vt 0.584473 0.769531
vt 0.583984 0.744141
vt 0.603516 0.740723
vt 0.605469 0.765625
vt 0.664551 0.742188
vt 0.647949 0.729980
vt 0.665527 0.707031
vt 0.683105 0.712891
vt 0.661621 0.629883
vt 0.645020 0.644043
vt 0.634766 0.627441
vt 0.654297 0.610840
vt 0.604492 0.718750
vt 0.585938 0.719238
vt 0.593750 0.680176
vt 0.611816 0.685059
vt 0.730469 0.572754
vt 0.737793 0.592773
vt 0.698730 0.610840
vt 0.691895 0.591309
vt 0.751465 0.631836
vt 0.756348 0.652344
vt 0.722656 0.666016
vt 0.712402 0.647949
vt 0.687500 0.678711
vt 0.666992 0.677734
vt 0.660156 0.666504
vt 0.677246 0.660156
vt 0.650391 0.701172
vt 0.642578 0.718262
vt 0.632324 0.718262
vt 0.639160 0.694824
vt 0.646484 0.754395
vt 0.634766 0.734375
vt 0.745605 0.611816
vt 0.704590 0.629883
vt 0.652344 0.656250
vt 0.667480 0.646484
vt 0.619629 0.718262
vt 0.627441 0.689941
vt 0.625488 0.760254
vt 0.619629 0.736328
vt 0.616211 0.645508
vt 0.631348 0.657715
vt 0.642578 0.667480
vt 0.649414 0.674805
vt 0.655762 0.683594
vn 0.974032 0.226410 0.000037
vn -0.054097 0.998536 0.000001
vn -0.024697 0.460790 -0.887166
vn 0.052959 -0.998597 -0.000292
vn -0.007136 0.133107 0.991076
vn -0.036248 0.999343 0.000000
vn -0.016883 0.462276 -0.886575
vn 0.036745 -0.999325 -0.000292
vn -0.004882 0.133593 0.991024
vn -0.054097 0.998536 0.000000
vn 0.974079 0.226208 0.000037
vn -0.459642 0.143423 0.876447
vn -0.000093 1.000000 0.000340
vn -0.409568 -0.142685 -0.901052
vn 0.967006 -0.254754 -0.000062
vn -0.984950 0.172839 0.000040
vn -0.989365 -0.145455 -0.000096
vn -0.356203 0.365564 -0.859931
vn 0.976492 0.215555 0.000142
vn -0.403121 0.101385 0.909513
vn -0.999005 -0.044590 -0.000048
vn -0.422326 0.206279 -0.882661
vn 0.997762 0.066862 0.000068
vn -0.419968 0.109707 0.900884
vn -0.984949 0.172844 0.000118
vn -0.433161 -0.135555 -0.891065
vn 0.967003 -0.254766 -0.000180
vn -0.437751 0.139797 0.888161
vn 0.000043 1.000000 0.000340
vn -0.989345 -0.145590 -0.000099
vn -0.999005 -0.044603 -0.000050
vn -0.984978 0.172683 0.000118
vn -0.984979 0.172674 0.000042
vn 0.967069 -0.254516 -0.000060
vn 0.967064 -0.254532 -0.000175
vn 0.997761 0.066876 0.000072
vn 0.976450 0.215745 0.000146
vn 0.000067 1.000000 0.000338
vn -0.000070 1.000000 0.000342
vn 0.337605 0.470861 -0.815054
vn 0.417819 0.250759 -0.873240
vn 0.415394 -0.312014 -0.854456
vn 0.393488 -0.309515 -0.865660
vn 0.463634 -0.058939 0.884064
vn 0.441460 -0.052888 0.895721
vn 0.417347 0.155621 0.895323
vn 0.393016 0.243315 0.886756
vn -0.974032 0.226410 0.000037
vn 0.054097 0.998536 0.000001
vn 0.024697 0.460790 -0.887166
vn -0.052959 -0.998597 -0.000292
vn 0.007136 0.133107 0.991076
vn 0.036248 0.999343 0.000000
vn 0.016883 0.462276 -0.886575
vn -0.036745 -0.999325 -0.000292
vn 0.004882 0.133593 0.991024
vn 0.054097 0.998536 0.000000
vn -0.974079 0.226209 0.000037
vn 0.459642 0.143423 0.876447
vn 0.000093 1.000000 0.000340
vn 0.409568 -0.142685 -0.901052
vn -0.967006 -0.254754 -0.000062
vn 0.984950 0.172839 0.000040
vn 0.989365 -0.145456 -0.000096
vn 0.356203 0.365564 -0.859931
vn -0.976492 0.215555 0.000142
vn 0.403121 0.101385 0.909513
vn 0.999005 -0.044590 -0.000048
vn 0.422326 0.206279 -0.882661
vn -0.997762 0.066863 0.000068
vn 0.419968 0.109707 0.900884
vn 0.984949 0.172844 0.000118
vn 0.433161 -0.135555 -0.891065
vn -0.967003 -0.254766 -0.000180
vn 0.437751 0.139797 0.888161
vn -0.000043 1.000000 0.000340
vn 0.989345 -0.145591 -0.000099
vn 0.999005 -0.044603 -0.000050
vn 0.984978 0.172682 0.000118
vn 0.984979 0.172674 0.000042
vn -0.967069 -0.254516 -0.000060
vn -0.967064 -0.254532 -0.000175
vn -0.997761 0.066876 0.000072
vn -0.976450 0.215745 0.000146
vn -0.000067 1.000000 0.000338
vn 0.000070 1.000000 0.000342
vn -0.337605 0.470861 -0.815054
vn -0.417819 0.250759 -0.873239
vn -0.415394 -0.312014 -0.854456
vn -0.393488 -0.309515 -0.865660
vn -0.463634 -0.058939 0.884064
vn -0.441460 -0.052888 0.895721
vn -0.417347 0.155621 0.895323
vn -0.393016 0.243315 0.886756
s off
f 1/1/1 2/2/1 3/3/1 4/4/1
f 2/2/2 5/5/2 6/6/2 3/3/2
f 2/2/3 1/7/3 7/8/3 5/5/3
f 7/9/4 1/10/4 4/11/4 8/12/4
f 9/13/5 10/14/5 11/15/5 12/16/5
f 5/5/6 13/17/6 14/18/6 6/6/6
f 15/19/7 13/17/7 5/5/7 7/8/7
f 15/20/8 7/9/8 8/12/8 16/21/8
f 17/22/9 18/23/9 10/14/9 9/13/9
f 6/6/6 14/18/6 17/22/6 9/13/6
f 3/3/10 6/6/10 9/13/10 12/16/10
f 11/24/11 4/4/11 3/3/11 12/16/11
f 10/25/4 8/12/4 4/11/4 11/26/4
f 18/27/8 16/21/8 8/12/8 10/25/8
f 19/28/12 20/29/12 21/30/12 22/31/12
f 23/32/13 24/33/13 25/34/13 26/35/13
f 27/36/14 28/37/14 29/38/14 30/39/14
f 31/40/15 32/41/15 33/42/15 34/43/15
f 19/44/16 22/45/16 35/46/16 36/47/16
f 37/48/17 23/49/17 26/50/17 38/51/17
f 39/52/18 40/53/18 41/54/18 42/55/18
f 43/56/19 44/57/19 45/58/19 46/59/19
f 37/60/20 47/61/20 24/33/20 23/32/20
f 48/62/21 37/48/21 38/51/21 49/63/21
f 42/55/22 41/54/22 50/64/22 51/65/22
f 45/58/23 52/66/23 53/67/23 46/59/23
f 48/68/24 54/69/24 47/61/24 37/60/24
f 22/45/25 48/62/25 49/63/25 35/46/25
f 51/65/26 50/64/26 28/37/26 27/36/26
f 52/66/27 31/40/27 34/43/27 53/67/27
f 22/31/28 21/30/28 54/69/28 48/68/28
f 39/52/29 26/35/29 25/34/29 40/53/29
f 42/55/30 38/51/30 26/50/30 39/52/30
f 51/65/31 49/63/31 38/51/31 42/55/31
f 27/36/32 35/46/32 49/63/32 51/65/32
f 36/47/33 35/46/33 27/36/33 30/39/33
f 34/43/34 33/42/34 55/70/34 56/71/34
f 53/67/35 34/43/35 56/71/35 57/72/35
f 46/59/36 53/67/36 57/72/36 58/73/36
f 59/74/37 43/56/37 46/59/37 58/73/37
f 24/33/38 44/57/38 43/56/38 25/34/38
f 40/53/39 25/34/39 43/56/39 59/74/39
f 41/54/40 40/53/40 59/74/40 58/73/40
f 50/64/41 41/54/41 58/73/41 57/72/41
f 28/37/42 50/64/42 57/72/42 56/71/42
f 29/38/43 28/37/43 56/71/43 55/70/43
f 21/30/44 20/29/44 32/41/44 31/40/44
f 54/69/45 21/30/45 31/40/45 52/66/45
f 47/61/46 54/69/46 52/66/46 45/58/46
f 24/33/47 47/61/47 45/58/47 44/57/47
f 60/1/48 61/4/48 62/3/48 63/2/48
f 63/2/49 62/3/49 64/6/49 65/5/49
f 66/8/50 60/7/50 63/2/50 65/5/50
f 66/9/51 67/12/51 61/11/51 60/10/51
f 68/13/52 69/16/52 70/15/52 71/14/52
f 65/5/53 64/6/53 14/18/53 13/17/53
f 15/19/54 66/8/54 65/5/54 13/17/54
f 15/20/55 16/21/55 67/12/55 66/9/55
f 17/22/56 68/13/56 71/14/56 18/23/56
f 64/6/53 68/13/53 17/22/53 14/18/53
f 62/3/57 69/16/57 68/13/57 64/6/57
f 70/24/58 69/16/58 62/3/58 61/4/58
f 71/25/51 70/26/51 61/11/51 67/12/51
f 18/27/55 71/25/55 67/12/55 16/21/55
f 72/28/59 73/31/59 74/30/59 75/29/59
f 76/32/60 77/35/60 78/34/60 79/33/60
f 80/36/61 81/39/61 82/38/61 83/37/61
f 84/40/62 85/43/62 86/42/62 87/41/62
f 72/44/63 88/47/63 89/46/63 73/45/63
f 90/48/64 91/51/64 77/50/64 76/49/64
f 92/52/65 93/55/65 94/54/65 95/53/65
f 96/56/66 97/59/66 98/58/66 99/57/66
f 90/60/67 76/32/67 79/33/67 100/61/67
f 101/62/68 102/63/68 91/51/68 90/48/68
f 93/55/69 103/65/69 104/64/69 94/54/69
f 98/58/70 97/59/70 105/67/70 106/66/70
f 101/68/71 90/60/71 100/61/71 107/69/71
f 73/45/72 89/46/72 102/63/72 101/62/72
f 103/65/73 80/36/73 83/37/73 104/64/73
f 106/66/74 105/67/74 85/43/74 84/40/74
f 73/31/75 101/68/75 107/69/75 74/30/75
f 92/52/76 95/53/76 78/34/76 77/35/76
f 93/55/77 92/52/77 77/50/77 91/51/77
f 103/65/78 93/55/78 91/51/78 102/63/78
f 80/36/79 103/65/79 102/63/79 89/46/79
f 88/47/80 81/39/80 80/36/80 89/46/80
f 85/43/81 108/71/81 109/70/81 86/42/81
f 105/67/82 110/72/82 108/71/82 85/43/82
f 97/59/83 111/73/83 110/72/83 105/67/83
f 112/74/84 111/73/84 97/59/84 96/56/84
f 79/33/85 78/34/85 96/56/85 99/57/85
f 95/53/86 112/74/86 96/56/86 78/34/86
f 94/54/87 111/73/87 112/74/87 95/53/87
f 104/64/88 110/72/88 111/73/88 94/54/88
f 83/37/89 108/71/89 110/72/89 104/64/89
f 82/38/90 109/70/90 108/71/90 83/37/90
f 74/30/91 84/40/91 87/41/91 75/29/91
f 107/69/92 106/66/92 84/40/92 74/30/92
f 100/61/93 98/58/93 106/66/93 107/69/93
f 79/33/94 99/57/94 98/58/94 100/61/94
