# Blender v2.69 (sub 0) OBJ File: ''
# www.blender.org
g Gate
v -4.000000 -0.000007 12.414855
v 4.000000 -0.000007 12.414855
v 4.000000 19.999992 12.414866
v -4.000000 19.999992 12.414866
v -3.000000 19.055084 11.414866
v 3.000000 19.055084 11.414866
v 3.000000 19.055092 5.414868
v -3.000000 19.055092 5.414868
v -4.000000 20.000000 4.414868
v 4.000000 20.000000 4.414868
v 4.000000 -0.000003 4.414855
v -4.000000 -0.000003 4.414855
v 3.000000 19.999992 11.414866
v -3.000000 19.999992 11.414866
v 3.000000 20.000000 5.414868
v -3.000000 20.000000 5.414868
v -4.000000 0.000004 -4.414855
v 4.000000 0.000004 -4.414855
v 4.000000 20.000002 -4.414842
v -4.000000 20.000002 -4.414842
v -3.000000 19.055094 -5.414842
v 3.000000 19.055094 -5.414842
v 3.000000 19.055099 -11.414844
v -3.000000 19.055099 -11.414844
v -4.000000 20.000008 -12.414844
v 4.000000 20.000008 -12.414844
v 4.000000 0.000009 -12.414855
v -4.000000 0.000009 -12.414855
v 3.000000 20.000002 -5.414842
v -3.000000 20.000002 -5.414842
v 3.000000 20.000008 -11.414844
v -3.000000 20.000008 -11.414844
v -2.305874 -0.000003 4.588236
v -1.870693 -0.000003 4.588236
v -1.870693 5.939853 4.588240
v -2.305874 5.939853 4.588240
v -2.305874 10.158609 4.275835
v -1.870693 10.158609 4.275835
v -1.870693 10.386441 3.486805
v -2.305874 10.386441 3.486805
v -2.305874 5.939860 -4.588233
v -1.870693 5.939860 -4.588233
v -1.870693 0.000004 -4.588237
v -2.305874 0.000004 -4.588237
v 2.245701 -0.000003 4.588236
v 2.582355 -0.000000 2.445770
v 2.582355 6.075902 2.445774
v 2.245701 5.939853 4.588240
v -2.582355 -0.000000 2.445770
v -2.582355 6.075902 2.445774
v -2.582355 9.502320 3.273280
v -2.305874 9.474416 4.588243
v -2.305874 10.158616 -4.275823
v -1.870693 10.158616 -4.275823
v -1.870693 9.474423 -4.588231
v -2.305874 9.474423 -4.588231
v 2.245701 9.474416 4.588243
v 2.582355 9.502320 3.273280
v 2.245701 10.386441 3.486805
v 2.245701 10.158609 4.275835
v -1.870693 9.474416 4.588243
v -2.305874 10.386445 -1.743391
v -2.582355 9.682775 -1.743391
v -2.582355 9.739966 0.000007
v -2.305874 10.386445 0.000007
v 2.245701 10.386445 0.000007
v 2.582355 9.739966 0.000007
v 2.582355 9.682775 -1.743391
v 2.245701 10.386445 -1.743391
v -1.870693 10.386445 0.000007
v -1.870693 10.386445 -1.743391
v -2.582355 9.502327 -3.273271
v -2.305874 10.386448 -3.486790
v -2.582355 0.000001 -2.445771
v -2.582355 6.075904 -2.445767
v 2.582355 6.075904 -2.445767
v 2.582355 0.000001 -2.445771
v 2.245701 0.000004 -4.588237
v 2.245701 5.939860 -4.588233
v 2.245701 10.386448 -3.486790
v 2.582355 9.502327 -3.273271
v 2.245701 9.474423 -4.588231
v 2.245701 10.158616 -4.275823
v -1.870693 10.386448 -3.486790
v -1.870693 10.386444 1.743406
v -2.305874 10.386444 1.743406
v -2.582355 9.682774 1.743406
v 2.582355 9.682774 1.743406
v 2.245701 10.386444 1.743406
v -1.870693 6.075904 -2.445767
v -1.870693 6.955698 -1.743394
v -2.582355 6.955698 -1.743394
v -1.870693 6.955696 1.743402
v -1.870693 6.075902 2.445774
v -2.582355 6.955696 1.743402
v -1.870693 7.234533 0.000003
v -2.582355 7.234533 0.000003
v -1.870693 -0.000000 2.445770
v -1.870693 0.000001 -2.445771
v 2.582355 6.955696 1.743402
v 2.582355 7.234533 0.000003
v 2.582355 6.955698 -1.743394
v 1.961212 10.158609 4.275835
v 1.961212 10.386441 3.486805
v 1.961212 10.386444 1.743406
v 1.961212 10.386445 0.000007
v 1.961212 10.386445 -1.743391
v 1.961212 10.386448 -3.486790
v 1.961212 10.158616 -4.275823
v 1.961212 9.474423 -4.588231
v 1.961212 5.939860 -4.588233
v 1.961212 0.000004 -4.588237
v 1.961212 0.000001 -2.445771
v 1.961212 6.075904 -2.445767
v 1.961212 6.955698 -1.743394
v 1.961212 7.234533 0.000003
v 1.961212 6.955696 1.743402
v 1.961212 6.075902 2.445774
v 1.961212 -0.000000 2.445770
v 1.961212 -0.000003 4.588236
v 1.961212 5.939853 4.588240
v 1.961212 9.474416 4.588243
v -1.897610 14.451924 12.095366
v 1.306103 14.451924 12.095366
v 1.306103 14.451941 -12.103029
v -1.897610 14.451941 -12.103029
v -1.897610 8.163534 -12.103033
v 1.306103 8.163534 -12.103033
v 1.306103 8.163518 12.095362
v -1.897610 8.163518 12.095362
vt 0.809560 0.353526
vt 0.892196 0.353526
vt 0.892196 0.560116
vt 0.809560 0.560116
vt 0.908642 0.522351
vt 0.908642 0.461122
vt 0.969871 0.461122
vt 0.969871 0.522351
vt 0.892256 0.560116
vt 0.809620 0.560116
vt 0.809620 0.353526
vt 0.892256 0.353526
vt 0.809369 0.353526
vt 0.892005 0.353526
vt 0.892005 0.560116
vt 0.809369 0.560116
vt 0.809734 0.353526
vt 0.892371 0.353526
vt 0.892371 0.560116
vt 0.809734 0.560116
vt 0.809540 0.477484
vt 0.891178 0.477484
vt 0.880973 0.491126
vt 0.819744 0.491126
vt 0.809406 0.477571
vt 0.891044 0.477571
vt 0.880839 0.491213
vt 0.819610 0.491213
vt 0.809768 0.477530
vt 0.891407 0.477530
vt 0.881202 0.491172
vt 0.819973 0.491172
vt 0.809499 0.477571
vt 0.891137 0.477571
vt 0.880932 0.491213
vt 0.819703 0.491213
vt 0.816922 0.506276
vt 0.883776 0.506276
vt 0.883776 0.522168
vt 0.816922 0.522168
vt 0.816948 0.506273
vt 0.883802 0.506273
vt 0.883802 0.522166
vt 0.816948 0.522166
vt 0.883928 0.521910
vt 0.817074 0.521910
vt 0.817074 0.506017
vt 0.883928 0.506017
vt 0.883878 0.521721
vt 0.817024 0.521721
vt 0.817024 0.505828
vt 0.883878 0.505828
vt 0.331378 0.774457
vt 0.325363 0.774457
vt 0.325362 0.692361
vt 0.331377 0.692361
vt 0.331376 0.633114
vt 0.325362 0.633113
vt 0.325362 0.621762
vt 0.331377 0.621762
vt 0.268646 0.692407
vt 0.274661 0.692407
vt 0.274661 0.774509
vt 0.268646 0.774509
vt 0.126617 0.587977
vt 0.156749 0.587604
vt 0.157793 0.672019
vt 0.127639 0.670502
vt 0.226444 0.587590
vt 0.256410 0.587846
vt 0.255706 0.670240
vt 0.225724 0.671871
vt 0.236754 0.714729
vt 0.255226 0.714687
vt 0.250799 0.724119
vt 0.239916 0.727386
vt 0.268645 0.633156
vt 0.274660 0.633156
vt 0.274660 0.643552
vt 0.268645 0.643552
vt 0.128334 0.714928
vt 0.146946 0.714812
vt 0.143683 0.727672
vt 0.132810 0.724349
vt 0.331376 0.643509
vt 0.325362 0.643509
vt 0.167718 0.727648
vt 0.167793 0.717207
vt 0.191797 0.718016
vt 0.191797 0.727713
vt 0.191774 0.728145
vt 0.191774 0.718102
vt 0.215736 0.717286
vt 0.215848 0.728054
vt 0.268646 0.573608
vt 0.274661 0.573609
vt 0.274660 0.597706
vt 0.268645 0.597706
vt 0.128369 0.714685
vt 0.146841 0.714728
vt 0.143679 0.727385
vt 0.132796 0.724118
vt 0.127186 0.587847
vt 0.157151 0.587591
vt 0.157871 0.671871
vt 0.127890 0.670240
vt 0.225754 0.672020
vt 0.226799 0.587604
vt 0.256931 0.587977
vt 0.255909 0.670502
vt 0.239865 0.727672
vt 0.236602 0.714813
vt 0.255214 0.714929
vt 0.250737 0.724350
vt 0.268645 0.621805
vt 0.274660 0.621804
vt 0.325363 0.597666
vt 0.331378 0.597666
vt 0.215877 0.727649
vt 0.215801 0.717208
vt 0.167812 0.717285
vt 0.167700 0.728054
vt 0.325364 0.573569
vt 0.331379 0.573569
vt 0.163806 0.672767
vt 0.163806 0.688327
vt 0.153970 0.688327
vt 0.153970 0.672767
vt 0.215432 0.688226
vt 0.215432 0.672665
vt 0.225269 0.672665
vt 0.225269 0.688226
vt 0.215432 0.712629
vt 0.225268 0.708267
vt 0.163806 0.712730
vt 0.153970 0.712730
vt 0.225269 0.588685
vt 0.215433 0.588685
vt 0.153969 0.588789
vt 0.163805 0.588788
vt 0.167687 0.683991
vt 0.191798 0.687799
vt 0.215908 0.683992
vt 0.167659 0.684121
vt 0.191774 0.687908
vt 0.215889 0.684122
vt 0.272399 0.633113
vt 0.272399 0.621762
vt 0.272399 0.597665
vt 0.272399 0.573568
vt 0.327626 0.573610
vt 0.327625 0.597707
vt 0.327625 0.621804
vt 0.327625 0.633156
vt 0.327625 0.643552
vt 0.327626 0.692407
vt 0.327626 0.774509
vt 0.216769 0.588788
vt 0.216770 0.672767
vt 0.216770 0.688327
vt 0.216770 0.712730
vt 0.162468 0.712629
vt 0.162468 0.688225
vt 0.162468 0.672665
vt 0.162469 0.588685
vt 0.272401 0.774457
vt 0.272400 0.692362
vt 0.272400 0.643509
vt 0.268467 0.633113
vt 0.268467 0.621762
vt 0.268467 0.597665
vt 0.268467 0.573568
vt 0.331558 0.573610
vt 0.331558 0.597707
vt 0.331558 0.621804
vt 0.331557 0.633156
vt 0.331557 0.643552
vt 0.331558 0.692407
vt 0.331559 0.774509
vt 0.225354 0.588788
vt 0.225355 0.672767
vt 0.225355 0.688327
vt 0.225355 0.708368
vt 0.153883 0.712629
vt 0.153883 0.688225
vt 0.153883 0.672665
vt 0.153883 0.588685
vt 0.268469 0.774457
vt 0.268468 0.692362
vt 0.268467 0.643509
vt 0.997926 0.491361
vt 0.997926 0.521891
vt 0.785760 0.521891
vt 0.785760 0.491361
vt 0.785760 0.521826
vt 0.785760 0.491295
vt 0.997926 0.491295
vt 0.997926 0.521826
vt 0.997926 0.522429
vt 0.785760 0.522429
vt 0.785760 0.467294
vt 0.997926 0.467294
vt 0.785760 0.467121
vt 0.997926 0.467121
vt 0.997926 0.522256
vt 0.785760 0.522256
vn -0.707107 -0.000000 0.707107
vn 0.707107 -0.000000 0.707107
vn 0.577349 0.577349 0.577349
vn -0.577349 0.577349 0.577349
vn 0.577349 0.577349 -0.577349
vn -0.577349 0.577349 -0.577349
vn 0.707107 0.000000 -0.707107
vn -0.707107 0.000000 -0.707107
vn -0.301492 0.904508 -0.301492
vn 0.301492 0.904508 -0.301492
vn -0.301492 0.904508 0.301492
vn 0.301492 0.904508 0.301492
vn -0.660308 -0.000001 0.750995
vn 0.000000 -0.000001 1.000000
vn 0.000000 0.000000 1.000000
vn -0.654897 -0.005921 0.755669
vn -0.547258 0.635456 0.544664
vn 0.000000 0.757195 0.653157
vn 0.000000 0.990112 0.140080
vn -0.581347 0.800562 0.145268
vn -0.654897 -0.005921 -0.755669
vn 0.000000 0.000000 -1.000000
vn 0.000000 0.000001 -1.000000
vn -0.660308 0.000001 -0.750995
vn 0.649912 -0.000001 0.760010
vn 0.760010 0.000000 -0.649912
vn 0.832545 -0.223151 -0.506974
vn 0.643300 -0.007080 0.765557
vn -0.750995 0.000000 -0.660308
vn -0.825495 -0.219306 -0.520005
vn -0.989013 0.122684 0.082369
vn -0.604785 0.187292 0.774041
vn -0.547258 0.635487 -0.544664
vn 0.000000 0.757195 -0.653157
vn 0.000000 0.212531 -0.977142
vn -0.604785 0.187292 -0.774041
vn 0.591876 0.192694 0.782617
vn 0.984130 0.146733 0.099612
vn 0.560472 0.813898 0.152989
vn 0.530229 0.644032 0.551408
vn 0.000000 0.212531 0.977142
vn -0.568590 0.822565 -0.007355
vn -0.983001 0.183416 -0.006439
vn -0.980377 0.196997 0.000000
vn -0.557207 0.830348 0.000000
vn 0.526139 0.850368 0.000000
vn 0.972289 0.233741 0.000000
vn 0.975829 0.218299 -0.007660
vn 0.539537 0.841884 -0.008515
vn 0.000000 1.000000 0.000000
vn -0.989013 0.122684 -0.082369
vn -0.581347 0.800562 -0.145268
vn -0.750995 -0.000000 0.660308
vn -0.825495 -0.219306 0.520005
vn 0.832545 -0.223151 0.506974
vn 0.760009 -0.000000 0.649912
vn 0.649912 0.000000 -0.760010
vn 0.643300 -0.007080 -0.765557
vn 0.560472 0.813898 -0.152989
vn 0.984130 0.146733 -0.099612
vn 0.591876 0.192694 -0.782617
vn 0.530229 0.644032 -0.551408
vn 0.000000 0.990112 -0.140080
vn -0.568590 0.822565 0.007355
vn -0.983001 0.183416 0.006439
vn 0.975829 0.218299 0.007660
vn 0.539537 0.841884 0.008515
vn 0.000000 -0.330515 0.943785
vn 0.000000 -0.863887 0.503647
vn -0.798029 -0.520585 0.303507
vn 0.000000 -0.863887 -0.503647
vn 0.000000 -0.330515 -0.943785
vn -0.798029 -0.520585 -0.303507
vn 0.000000 -1.000000 0.000000
vn -0.744438 -0.667684 0.000000
vn 0.798029 -0.520585 -0.303507
vn 0.744438 -0.667684 0.000000
vn 0.798029 -0.520585 0.303507
vn -0.707107 0.707107 0.000000
vn 0.707107 0.707107 0.000000
vn -0.707107 -0.707107 -0.000000
vn 0.707107 -0.707107 -0.000000
s 1
f 1/1/1 2/2/2 3/3/3 4/4/4
f 5/5/5 6/6/6 7/7/4 8/8/3
f 9/9/6 10/10/5 11/11/7 12/12/8
f 2/13/2 11/14/7 10/15/5 3/16/3
f 12/17/8 1/18/1 4/19/4 9/20/6
f 4/21/4 3/22/3 13/23/9 14/24/10
f 3/25/3 10/26/5 15/27/11 13/28/9
f 10/29/5 9/30/6 16/31/12 15/32/11
f 9/33/6 4/34/4 14/35/10 16/36/12
f 14/37/10 13/38/9 6/39/6 5/40/5
f 13/41/9 15/42/11 7/43/4 6/44/6
f 15/45/11 16/46/12 8/47/3 7/48/4
f 16/49/12 14/50/10 5/51/5 8/52/3
f 17/1/1 18/2/2 19/3/3 20/4/4
f 21/5/5 22/6/6 23/7/4 24/8/3
f 25/9/6 26/10/5 27/11/7 28/12/8
f 18/13/2 27/14/7 26/15/5 19/16/3
f 28/17/8 17/18/1 20/19/4 25/20/6
f 20/21/4 19/22/3 29/23/9 30/24/10
f 19/25/3 26/26/5 31/27/11 29/28/9
f 26/29/5 25/30/6 32/31/12 31/32/11
f 25/33/6 20/34/4 30/35/10 32/36/12
f 30/37/10 29/38/9 22/39/6 21/40/5
f 29/41/9 31/42/11 23/43/4 22/44/6
f 31/45/11 32/46/12 24/47/3 23/48/4
f 32/49/12 30/50/10 21/51/5 24/52/3
f 33/53/13 34/54/14 35/55/15 36/56/16
f 37/57/17 38/58/18 39/59/19 40/60/20
f 41/61/21 42/62/22 43/63/23 44/64/24
f 45/65/25 46/66/26 47/67/27 48/68/28
f 49/69/29 33/70/13 36/71/16 50/72/30
f 51/73/31 52/74/32 37/75/17 40/76/20
f 53/77/33 54/78/34 55/79/35 56/80/36
f 57/81/37 58/82/38 59/83/39 60/84/40
f 52/85/32 61/86/41 38/58/18 37/57/17
f 62/87/42 63/88/43 64/89/44 65/90/45
f 66/91/46 67/92/47 68/93/48 69/94/49
f 65/95/45 70/96/50 71/97/50 62/98/42
f 56/99/36 72/100/51 73/101/52 53/102/33
f 44/103/24 74/104/53 75/105/54 41/106/21
f 76/107/55 77/108/56 78/109/57 79/110/58
f 80/111/59 81/112/60 82/113/61 83/114/62
f 73/115/52 84/116/63 54/78/34 53/77/33
f 40/60/20 39/59/19 85/117/50 86/118/64
f 86/119/64 87/120/65 51/73/31 40/76/20
f 59/83/39 58/82/38 88/121/66 89/122/67
f 89/122/67 88/121/66 67/92/47 66/91/46
f 86/118/64 85/117/50 70/123/50 65/124/45
f 64/89/44 87/120/65 86/119/64 65/90/45
f 69/94/49 68/93/48 81/112/60 80/111/59
f 62/98/42 71/97/50 84/116/63 73/115/52
f 72/100/51 63/88/43 62/87/42 73/101/52
f 90/125/68 91/126/69 92/127/70 75/128/54
f 93/129/71 94/130/72 50/131/30 95/132/73
f 96/133/74 93/129/71 95/132/73 97/134/75
f 91/126/69 96/135/74 97/136/75 92/127/70
f 49/137/29 50/131/30 94/130/72 98/138/23
f 74/139/53 99/140/14 90/125/68 75/128/54
f 41/106/21 75/105/54 72/100/51 56/99/36
f 75/105/54 92/141/70 63/88/43 72/100/51
f 64/89/44 63/88/43 92/141/70 97/142/75
f 97/142/75 95/143/73 87/120/65 64/89/44
f 51/73/31 87/120/65 95/143/73 50/72/30
f 50/72/30 36/71/16 52/74/32 51/73/31
f 36/56/16 35/55/15 61/86/41 52/85/32
f 48/68/28 47/67/27 58/82/38 57/81/37
f 88/121/66 58/82/38 47/67/27 100/144/76
f 67/92/47 88/121/66 100/144/76 101/145/77
f 68/93/48 67/92/47 101/145/77 102/146/78
f 81/112/60 68/93/48 102/146/78 76/107/55
f 82/113/61 81/112/60 76/107/55 79/110/58
f 56/80/36 55/79/35 42/62/22 41/61/21
f 38/58/18 103/147/18 104/148/19 39/59/19
f 85/117/50 39/59/19 104/148/19 105/149/50
f 70/123/50 85/117/50 105/149/50 106/150/50
f 71/97/50 70/96/50 106/151/50 107/152/50
f 84/116/63 71/97/50 107/152/50 108/153/63
f 54/78/34 84/116/63 108/153/63 109/154/34
f 55/79/35 54/78/34 109/154/34 110/155/35
f 42/62/22 55/79/35 110/155/35 111/156/22
f 43/63/23 42/62/22 111/156/22 112/157/23
f 90/125/68 99/140/14 113/158/14 114/159/68
f 114/159/68 115/160/69 91/126/69 90/125/68
f 115/160/69 116/161/74 96/135/74 91/126/69
f 116/162/74 117/163/71 93/129/71 96/133/74
f 117/163/71 118/164/72 94/130/72 93/129/71
f 98/138/23 94/130/72 118/164/72 119/165/23
f 35/55/15 34/54/14 120/166/14 121/167/15
f 61/86/41 35/55/15 121/167/15 122/168/41
f 38/58/18 61/86/41 122/168/41 103/147/18
f 103/147/18 60/169/40 59/170/39 104/148/19
f 105/149/50 104/148/19 59/170/39 89/171/67
f 106/150/50 105/149/50 89/171/67 66/172/46
f 107/152/50 106/151/50 66/173/46 69/174/49
f 108/153/63 107/152/50 69/174/49 80/175/59
f 109/154/34 108/153/63 80/175/59 83/176/62
f 110/155/35 109/154/34 83/176/62 82/177/61
f 111/156/22 110/155/35 82/177/61 79/178/58
f 112/157/23 111/156/22 79/178/58 78/179/57
f 114/159/68 113/158/14 77/180/56 76/181/55
f 76/181/55 102/182/78 115/160/69 114/159/68
f 102/182/78 101/183/77 116/161/74 115/160/69
f 101/184/77 100/185/76 117/163/71 116/162/74
f 100/185/76 47/186/27 118/164/72 117/163/71
f 119/165/23 118/164/72 47/186/27 46/187/26
f 121/167/15 120/166/14 45/188/25 48/189/28
f 122/168/41 121/167/15 48/189/28 57/190/37
f 103/147/18 122/168/41 57/190/37 60/169/40
f 123/191/79 124/192/80 125/193/80 126/194/79
f 127/195/81 128/196/82 129/197/82 130/198/81
f 129/199/82 128/200/82 125/201/80 124/202/80
f 127/203/81 130/204/81 123/205/79 126/206/79
