# Blender v2.69 (sub 0) OBJ File: ''
# www.blender.org
g Gate_Bars
v -0.754658 0.373839 3.001230
v -0.754658 0.373840 -3.001230
v -0.754658 8.680267 -3.001224
v -0.754658 8.680260 3.001235
v -0.920540 0.373839 3.001230
v -0.920540 8.680260 3.001235
v -0.920540 8.680267 -3.001224
v -0.920540 0.373840 -3.001230
vt 0.553635 0.010400
vt 0.641636 0.010400
vt 0.641636 0.142229
vt 0.553635 0.142229
vt 0.641536 0.010476
vt 0.641536 0.142305
vt 0.553534 0.142305
vt 0.553534 0.010476
vn 1.000000 0.000000 0.000000
vn -1.000000 0.000000 0.000000
s off
f 1/1/1 2/2/1 3/3/1 4/4/1
f 5/5/2 6/6/2 7/7/2 8/8/2
