# Blender v2.69 (sub 0) OBJ File: ''
# www.blender.org
g Rack
v -0.062677 1.757547 2.622543
v 0.062677 1.757547 2.622543
v 0.062677 1.757548 -2.622543
v -0.062677 1.757548 -2.622543
v 0.062677 1.632193 -2.622543
v -0.062677 1.632193 -2.622543
v 0.062677 1.632192 2.622543
v -0.062677 1.632192 2.622543
v 0.962872 -0.035938 2.571877
v 1.087366 0.035938 2.571877
v 0.119829 1.711761 2.571877
v -0.004665 1.639884 2.571877
v 0.119829 1.711761 2.428123
v -0.004665 1.639885 2.428123
v 1.087366 0.035938 2.428123
v 0.962872 -0.035938 2.428123
v -1.043519 0.035938 2.571877
v -0.919025 -0.035938 2.571877
v 0.048512 1.639884 2.571877
v -0.075982 1.711761 2.571877
v 0.048512 1.639885 2.428123
v -0.075982 1.711761 2.428123
v -0.919025 -0.035938 2.428123
v -1.043519 0.035938 2.428123
v 0.962872 -0.035938 -2.428123
v 1.087366 0.035938 -2.428123
v 0.119829 1.711761 -2.428123
v -0.004665 1.639885 -2.428123
v 0.119829 1.711761 -2.571877
v -0.004665 1.639885 -2.571877
v 1.087366 0.035938 -2.571877
v 0.962872 -0.035938 -2.571877
v -1.043519 0.035938 -2.428123
v -0.919025 -0.035938 -2.428123
v 0.048512 1.639885 -2.428123
v -0.075982 1.711761 -2.428123
v 0.048512 1.639885 -2.571877
v -0.075982 1.711761 -2.571877
v -0.919025 -0.035938 -2.571877
v -1.043519 0.035938 -2.571877
vt 0.243652 0.294434
vt 0.243652 0.318848
vt 0.005371 0.318848
vt 0.005371 0.294434
vt 0.452637 0.184082
vt 0.478027 0.184082
vt 0.478027 0.209473
vt 0.452637 0.209473
vt 0.243652 0.269043
vt 0.243652 0.293457
vt 0.005371 0.293457
vt 0.005371 0.269043
vt 0.243652 0.219727
vt 0.243652 0.244141
vt 0.005371 0.244141
vt 0.005371 0.219727
vt 0.243652 0.268555
vt 0.005371 0.268555
vt 0.243652 0.318359
vt 0.243652 0.342773
vt 0.005371 0.342773
vt 0.005371 0.318359
vt 0.243652 0.293945
vt 0.005371 0.293945
vn 0.000000 1.000000 0.000000
vn 0.000000 0.000000 -1.000000
vn 0.000000 -1.000000 -0.000000
vn 0.000000 0.000000 1.000000
vn 1.000000 0.000000 0.000000
vn -1.000000 0.000000 0.000000
vn -0.000002 -0.000000 1.000000
vn -0.499999 0.866026 0.000004
vn 0.000001 0.000000 -1.000000
vn 0.499997 -0.866027 -0.000000
vn 0.866025 0.500000 0.000000
vn -0.866025 -0.500000 -0.000002
vn 0.000002 -0.000000 1.000000
vn 0.499999 0.866026 0.000004
vn -0.000001 0.000000 -1.000000
vn -0.499997 -0.866027 -0.000000
vn 0.866025 -0.500000 -0.000002
vn -0.866025 0.500000 0.000000
vn -0.499997 0.866027 0.000001
vn 0.866026 0.500000 0.000000
vn -0.866025 -0.500001 -0.000000
vn 0.499997 0.866027 0.000001
vn 0.866025 -0.500001 -0.000000
vn -0.866026 0.500000 0.000000
s off
f 1/1/1 2/2/1 3/3/1 4/4/1
f 4/5/2 3/6/2 5/7/2 6/8/2
f 6/9/3 5/10/3 7/11/3 8/12/3
f 2/5/4 1/6/4 8/7/4 7/8/4
f 2/13/5 7/14/5 5/15/5 3/16/5
f 8/14/6 1/17/6 4/18/6 6/15/6
f 9/9/7 10/10/7 11/11/7 12/12/7
f 12/5/8 11/6/8 13/7/8 14/8/8
f 14/1/9 13/2/9 15/3/9 16/4/9
f 16/5/10 15/6/10 10/7/10 9/8/10
f 10/14/11 15/17/11 13/18/11 11/15/11
f 16/19/12 9/20/12 12/21/12 14/22/12
f 17/13/13 18/14/13 19/15/13 20/16/13
f 20/5/14 19/6/14 21/7/14 22/8/14
f 22/23/15 21/19/15 23/22/15 24/24/15
f 24/5/16 23/6/16 18/7/16 17/8/16
f 18/9/17 23/10/17 21/11/17 19/12/17
f 24/9/18 17/10/18 20/11/18 22/12/18
f 25/23/4 26/19/4 27/22/4 28/24/4
f 28/5/19 27/6/19 29/7/19 30/8/19
f 30/9/15 29/10/15 31/11/15 32/12/15
f 32/5/10 31/6/10 26/7/10 25/8/10
f 26/9/20 31/10/20 29/11/20 27/12/20
f 32/9/21 25/10/21 28/11/21 30/12/21
f 33/9/4 34/10/4 35/11/4 36/12/4
f 36/5/22 35/6/22 37/7/22 38/8/22
f 38/9/9 37/10/9 39/11/9 40/12/9
f 40/5/16 39/6/16 34/7/16 33/8/16
f 34/9/23 39/10/23 37/11/23 35/12/23
f 40/9/24 33/10/24 36/11/24 38/12/24
