# Blender v2.69 (sub 0) OBJ File: ''
# www.blender.org
g Rock_A
v -0.072620 -0.000000 0.073400
v 0.002289 -0.000000 0.104418
v 0.011973 0.083276 0.044427
v -0.048887 0.074966 0.028164
v 0.000476 0.173866 0.009976
v 0.045284 0.188932 0.003857
v 0.020743 0.222803 -0.030975
v -0.042039 0.162220 -0.018257
v -0.067147 0.070119 -0.080537
v -0.023030 0.087654 -0.090413
v 0.002289 0.000000 -0.104417
v -0.072620 0.000000 -0.073400
v 0.074180 -0.000000 0.073400
v 0.096550 0.000000 -0.000001
v 0.055613 0.090913 -0.035343
v 0.050912 0.088011 0.013798
v -0.102129 0.000000 -0.000001
v -0.087353 0.079604 -0.020010
v 0.073681 0.186385 -0.005038
v 0.045452 0.217692 -0.040536
v 0.036948 0.092012 -0.080343
v 0.068652 0.000000 -0.073400
v 0.027878 0.206280 -0.074529
v -0.003206 0.208257 -0.063696
v -0.054401 0.130437 -0.068116
vt 0.890625 0.014160
vt 0.948730 0.014160
vt 0.939941 0.041504
vt 0.895996 0.039551
vt 0.917969 0.063477
vt 0.935059 0.072754
vt 0.919434 0.084961
vt 0.897461 0.072266
vt 0.870117 0.110352
vt 0.893555 0.122559
vt 0.894043 0.157715
vt 0.849609 0.116699
vt 0.987305 0.056152
vt 0.985352 0.110352
vt 0.954102 0.114258
vt 0.965332 0.072754
vt 0.849609 0.056152
vt 0.869141 0.070801
vt 0.942383 0.084961
vt 0.928223 0.090820
vt 0.920898 0.131836
vt 0.947266 0.151367
vt 0.921387 0.102051
vt 0.909180 0.097168
vt 0.886719 0.095703
vn -0.300886 0.571310 0.763592
vn -0.368580 0.681603 0.632112
vn -0.324960 0.000286 -0.945728
vn 0.881675 0.425076 0.204839
vn -0.796279 0.392633 0.460194
vn 0.296267 0.801076 0.520099
vn 0.302361 0.133059 -0.943861
vn 0.388605 0.547999 0.740732
vn -0.934193 0.062664 -0.351222
vn 0.895649 0.274837 -0.349682
vn -0.011557 0.934288 -0.356332
vn -0.772318 0.635017 -0.016663
vn -0.162755 0.332607 0.928915
vn -0.647863 0.396795 0.650252
vn -0.898835 0.385742 -0.208081
vn -0.306260 0.253622 -0.917541
vn -0.011900 0.137721 -0.990400
vn 0.902832 0.073121 -0.423731
vn 0.950566 -0.085100 -0.298634
vn 0.500275 0.112466 0.858531
s off
f 1/1/1 2/2/1 3/3/1 4/4/1
f 5/5/2 6/6/2 7/7/2 8/8/2
f 9/9/3 10/10/3 11/11/3 12/12/3
f 13/13/4 14/14/4 15/15/4 16/16/4
f 17/17/5 1/1/5 4/4/5 18/18/5
f 6/6/6 19/19/6 20/20/6 7/7/6
f 11/11/7 10/10/7 21/21/7 22/22/7
f 16/16/8 3/3/8 2/2/8 13/13/8
f 12/12/9 17/17/9 18/18/9 9/9/9
f 15/15/10 14/14/10 22/22/10 21/21/10
f 7/7/11 20/20/11 23/23/11 24/24/11
f 8/8/12 7/7/12 24/24/12 25/25/12
f 4/4/13 3/3/13 6/6/13 5/5/13
f 18/18/14 4/4/14 5/5/14 8/8/14
f 9/9/15 18/18/15 8/8/15 25/25/15
f 25/25/16 24/24/16 10/10/16 9/9/16
f 21/21/17 10/10/17 24/24/17 23/23/17
f 20/20/18 15/15/18 21/21/18 23/23/18
f 16/16/19 15/15/19 20/20/19 19/19/19
f 6/6/20 3/3/20 16/16/20 19/19/20
