# Blender v2.69 (sub 0) OBJ File: ''
# www.blender.org
g Rock_C
v -0.057359 -0.000000 0.057360
v 0.001179 -0.000000 0.081599
v -0.001770 0.066760 0.057258
v -0.051295 0.056799 0.026427
v -0.005988 0.092199 0.032992
v 0.035299 0.096762 0.031973
v 0.008812 0.105005 0.004578
v -0.040131 0.086820 0.000292
v -0.044143 0.039413 -0.075065
v 0.000788 0.048913 -0.074717
v 0.001179 0.000000 -0.081598
v -0.057359 0.000000 -0.057359
v 0.057359 -0.000000 0.057360
v 0.074840 -0.000000 0.000001
v 0.059213 0.060668 -0.003275
v 0.041676 0.066253 0.040218
v -0.080419 -0.000000 0.000001
v -0.076062 0.053195 -0.026336
v 0.061191 0.096510 0.024472
v 0.033308 0.103584 -0.007343
v 0.054032 0.054084 -0.049513
v 0.053039 0.000000 -0.057359
v 0.017146 0.099647 -0.039683
v -0.012613 0.100046 -0.028159
v -0.036043 0.074327 -0.056603
vt 0.970215 0.140625
vt 0.913086 0.188477
vt 0.896973 0.153320
vt 0.936035 0.122559
vt 0.904297 0.123047
vt 0.877930 0.132324
vt 0.885742 0.106934
vt 0.915527 0.092773
vt 0.909180 0.040039
vt 0.868652 0.042480
vt 0.844727 0.015625
vt 0.917969 0.011719
vt 0.846191 0.183105
vt 0.797363 0.136230
vt 0.827637 0.108887
vt 0.851074 0.148438
vt 0.971680 0.064453
vt 0.938477 0.076172
vt 0.859863 0.128906
vt 0.864746 0.105469
vt 0.831055 0.070801
vt 0.797363 0.062500
vt 0.862305 0.082520
vt 0.886230 0.082520
vt 0.894531 0.059570
vn -0.448187 0.374432 0.811744
vn -0.243813 0.925421 0.290087
vn -0.216458 -0.087738 -0.972341
vn 0.913163 0.273835 0.301906
vn -0.884126 0.278937 0.374855
vn 0.096353 0.981504 0.165428
vn 0.417173 0.126250 -0.900015
vn 0.363619 0.323390 0.873614
vn -0.889363 -0.047499 -0.454728
vn 0.957124 0.132322 -0.257691
vn -0.020266 0.992086 -0.123912
vn -0.492745 0.867063 -0.073514
vn -0.332290 0.621577 0.709384
vn -0.682343 0.607606 0.406476
vn -0.641197 0.664460 -0.383874
vn 0.024623 0.603655 -0.796865
vn 0.106303 0.541573 -0.833906
vn 0.772622 0.566917 -0.285762
vn 0.989594 0.049872 -0.134967
vn 0.320331 0.308964 0.895505
s off
f 1/1/1 2/2/1 3/3/1 4/4/1
f 5/5/2 6/6/2 7/7/2 8/8/2
f 9/9/3 10/10/3 11/11/3 12/12/3
f 13/13/4 14/14/4 15/15/4 16/16/4
f 17/17/5 1/1/5 4/4/5 18/18/5
f 6/6/6 19/19/6 20/20/6 7/7/6
f 11/11/7 10/10/7 21/21/7 22/22/7
f 16/16/8 3/3/8 2/2/8 13/13/8
f 12/12/9 17/17/9 18/18/9 9/9/9
f 15/15/10 14/14/10 22/22/10 21/21/10
f 7/7/11 20/20/11 23/23/11 24/24/11
f 8/8/12 7/7/12 24/24/12 25/25/12
f 4/4/13 3/3/13 6/6/13 5/5/13
f 18/18/14 4/4/14 5/5/14 8/8/14
f 9/9/15 18/18/15 8/8/15 25/25/15
f 25/25/16 24/24/16 10/10/16 9/9/16
f 21/21/17 10/10/17 24/24/17 23/23/17
f 20/20/18 15/15/18 21/21/18 23/23/18
f 16/16/19 15/15/19 20/20/19 19/19/19
f 6/6/20 3/3/20 16/16/20 19/19/20
