# Blender v2.69 (sub 0) OBJ File: ''
# www.blender.org
g Sewers
v -0.239006 -0.015803 6.352048
v 1.679214 0.823660 5.469697
v 1.662033 7.522262 5.470122
v -0.258965 7.770812 6.352544
v 1.654442 10.588463 2.748048
v -0.267784 11.335033 3.188318
v -0.257767 7.771597 -6.305229
v 1.663055 7.522938 -5.418989
v 1.680237 0.824335 -5.419391
v -0.237808 -0.015019 -6.305687
v -0.238708 -0.015608 3.187624
v 1.679459 0.823834 2.747435
v 0.207153 1.320063 2.747319
v 0.206940 1.319921 4.969588
v 0.191544 7.328590 4.969950
v 0.184601 10.128241 2.484521
v 0.207672 1.320397 -2.697236
v 0.207405 1.320230 0.025042
v 0.183533 10.631549 0.025625
v 0.185074 10.128547 -2.433345
v -0.238121 -0.015215 -3.141255
v 1.679977 0.824164 -2.697128
v 1.679718 0.824000 0.025150
v -0.238396 -0.015410 0.023185
v -0.269165 11.982750 0.023922
v 1.653259 11.145676 0.025778
v 1.654953 10.588799 -2.696523
v -0.267189 11.335430 -3.140561
v 0.207870 1.320532 -4.919520
v 0.192474 7.329200 -4.919148
v -2.196793 0.813898 2.747070
v -2.197044 0.813727 5.469347
v -2.198280 1.313755 4.969383
v -2.198059 1.313897 2.747091
v -2.214195 7.512334 5.469759
v -2.213676 7.322423 4.969739
v -2.221802 10.578533 2.747668
v -2.220619 10.122078 2.484301
v -2.196274 0.814233 -2.697493
v -2.196518 0.814067 0.024792
v -2.197815 1.314066 0.024821
v -2.197556 1.314233 -2.697464
v -2.222992 11.135740 0.025428
v -2.221291 10.578870 -2.696888
v -2.220139 10.122382 -2.433580
v -2.221680 10.625384 0.025405
v -2.196014 0.814402 -5.419756
v -2.197342 1.314370 -4.919733
v -2.213181 7.513005 -5.419352
v -2.212746 7.323038 -4.919362
vt 0.902580 0.380415
vt 0.917128 0.380415
vt 0.915173 0.426530
vt 0.902405 0.425593
vt 0.913990 0.451217
vt 0.902358 0.450777
vt 0.902400 0.508645
vt 0.915171 0.507701
vt 0.917128 0.553805
vt 0.902570 0.553805
vt 0.916705 0.505313
vt 0.902908 0.505313
vt 0.902908 0.487369
vt 0.916705 0.484466
vt 0.621275 0.023285
vt 0.639992 0.023285
vt 0.639992 0.073894
vt 0.619057 0.097473
vt 0.575417 0.023285
vt 0.598346 0.023285
vt 0.598346 0.101711
vt 0.577636 0.097473
vt 0.902908 0.445665
vt 0.916705 0.448590
vt 0.916705 0.466528
vt 0.902908 0.466517
vt 0.902351 0.467127
vt 0.913622 0.467118
vt 0.913989 0.483019
vt 0.902356 0.483474
vt 0.556700 0.023285
vt 0.556700 0.073894
vt 0.902908 0.427732
vt 0.916705 0.427732
vt 0.912252 0.413597
vt 0.936309 0.413610
vt 0.931889 0.418026
vt 0.912250 0.418015
vt 0.936278 0.472804
vt 0.931860 0.471124
vt 0.912210 0.499883
vt 0.909886 0.495849
vt 0.864137 0.413571
vt 0.888195 0.413584
vt 0.888192 0.418002
vt 0.864135 0.417989
vt 0.888156 0.504791
vt 0.864110 0.499856
vt 0.866439 0.495825
vt 0.888159 0.500282
vt 0.840079 0.413558
vt 0.844496 0.417979
vt 0.840079 0.472756
vt 0.844497 0.471081
vt 0.840118 0.413585
vt 0.844532 0.418004
vt 0.820087 0.440237
vt 0.820087 0.415769
vt 0.846569 0.415769
vt 0.846569 0.440236
vt 0.820087 0.349613
vt 0.846568 0.349613
vt 0.820087 0.553543
vt 0.820087 0.512324
vt 0.846569 0.512324
vt 0.846568 0.553543
vt 0.820088 0.500181
vt 0.820088 0.470209
vt 0.846569 0.470209
vt 0.846570 0.500181
vt 0.820087 0.484690
vt 0.820087 0.457056
vt 0.846569 0.457056
vt 0.846569 0.484690
vt 0.820089 0.524648
vt 0.846570 0.524648
vt 0.820088 0.415837
vt 0.846569 0.415837
vt 0.820088 0.349680
vt 0.846570 0.349680
vt 0.889434 0.426477
vt 0.890542 0.451201
vt 0.887761 0.380415
vt 0.888895 0.505313
vt 0.888895 0.484466
vt 0.888895 0.466528
vt 0.888895 0.448590
vt 0.888895 0.427732
vt 0.889427 0.507751
vt 0.887743 0.553805
vt 0.890539 0.483032
vt 0.890897 0.467117
vn 0.005127 -0.703604 0.710562
vn 0.535775 -0.602631 0.591423
vn 0.428975 0.329660 0.841014
vn 0.002258 0.348430 0.937315
vn 0.411025 0.790147 0.454671
vn 0.000916 0.865902 0.500198
vn 0.002441 0.348460 -0.937315
vn 0.430374 0.329679 -0.840291
vn 0.536641 -0.602666 -0.590601
vn 0.005280 -0.703269 -0.710898
vn 0.005890 -0.999969 -0.000061
vn 0.400912 -0.916117 -0.000019
vn -0.708914 0.705283 0.000000
vn -0.578753 0.575884 -0.577349
vn -0.634449 -0.275826 -0.722037
vn -0.640675 -0.665395 -0.383038
vn -0.662709 -0.748833 -0.000092
vn -0.640736 -0.665456 0.382855
vn 0.005890 -0.999969 -0.000031
vn 0.400910 -0.916118 -0.000019
vn 0.000641 0.999969 -0.000031
vn 0.399223 0.916854 0.000198
vn 0.411796 0.790085 -0.454081
vn 0.001007 0.865810 -0.500290
vn -0.578875 0.575823 0.577319
vn -0.634571 -0.275918 0.721885
vn -0.832972 -0.553301 -0.000092
vn -0.777673 -0.450087 0.438826
vn -0.905271 0.299203 -0.301553
vn -0.708884 0.705283 0.000000
vn -0.790094 0.221229 0.571642
vn -0.795801 -0.216742 -0.565386
vn -0.790887 0.529771 0.306314
vn -0.784173 -0.537919 -0.309275
vn -0.832942 -0.553301 -0.000092
vn -0.804956 0.593310 0.000000
vn -0.791070 0.529618 -0.306070
vn -0.784234 -0.537950 0.309061
vn -0.753441 -0.657491 -0.000092
vn -0.777917 -0.450087 -0.438429
vn -0.905332 0.299173 0.301431
vn -0.790429 0.221168 -0.571184
vn -0.795892 -0.216803 0.565233
s 1
f 1/1/1 2/2/2 3/3/3 4/4/4
f 4/4/4 3/3/3 5/5/5 6/6/6
f 7/7/7 8/8/8 9/9/9 10/10/10
f 2/11/2 1/12/1 11/13/11 12/14/12
f 13/15/13 14/16/14 15/17/15 16/18/16
f 17/19/13 18/20/13 19/21/17 20/22/18
f 21/23/19 22/24/20 23/25/12 24/26/11
f 25/27/21 26/28/22 27/29/23 28/30/24
f 29/31/25 17/19/13 20/22/18 30/32/26
f 10/33/10 9/34/9 22/24/20 21/23/19
f 28/30/24 27/29/23 8/8/8 7/7/7
f 18/20/13 13/15/13 16/18/16 19/21/17
f 24/26/11 23/25/12 12/14/12 11/13/11
f 25/27/21 6/6/6 5/5/5 26/28/22
f 31/35/27 32/36/28 33/37/29 34/38/30
f 32/36/28 35/39/31 36/40/32 33/37/29
f 35/39/31 37/41/33 38/42/34 36/40/32
f 39/43/27 40/44/35 41/45/13 42/46/13
f 43/47/36 44/48/37 45/49/38 46/50/39
f 47/51/40 39/43/27 42/46/13 48/52/41
f 44/48/37 49/53/42 50/54/43 45/49/38
f 49/53/42 47/55/40 48/56/41 50/54/43
f 40/44/35 31/35/27 34/38/30 41/45/13
f 37/41/33 43/47/36 46/50/39 38/42/34
f 34/57/30 33/58/29 14/59/14 13/60/13
f 33/58/29 36/61/32 15/62/15 14/59/14
f 36/63/32 38/64/34 16/65/16 15/66/15
f 42/67/13 41/68/13 18/69/13 17/70/13
f 46/71/39 45/72/38 20/73/18 19/74/17
f 48/75/41 42/67/13 17/70/13 29/76/25
f 45/72/38 50/77/43 30/78/26 20/73/18
f 50/77/43 48/79/41 29/80/25 30/78/26
f 41/68/13 34/57/30 13/60/13 18/69/13
f 38/64/34 46/71/39 19/74/17 16/65/16
f 35/81/31 4/4/4 6/6/6 37/82/33
f 32/83/28 1/1/1 4/4/4 35/81/31
f 1/12/1 32/84/28 31/85/27 11/13/11
f 40/86/35 24/26/11 11/13/11 31/85/27
f 39/87/27 21/23/19 24/26/11 40/86/35
f 47/88/40 10/33/10 21/23/19 39/87/27
f 49/89/42 7/7/7 10/10/10 47/90/40
f 44/91/37 28/30/24 7/7/7 49/89/42
f 43/92/36 25/27/21 28/30/24 44/91/37
f 37/82/33 6/6/6 25/27/21 43/92/36
