# Blender v2.69 (sub 0) OBJ File: ''
# www.blender.org
g Tower
v -4.000000 -0.000003 3.999999
v 4.000000 -0.000003 3.999999
v 4.000000 20.000000 4.000008
v -4.000000 20.000000 4.000008
v -3.000000 19.055092 3.000008
v 3.000000 19.055092 3.000008
v 3.000000 19.055092 -2.999990
v -3.000000 19.055092 -2.999990
v -4.000000 20.000000 -3.999990
v 4.000000 20.000000 -3.999990
v 4.000000 0.000003 -4.000000
v -4.000000 0.000003 -4.000000
v 3.000000 20.000000 3.000008
v -3.000000 20.000000 3.000008
v 3.000000 20.000000 -2.999990
v -3.000000 20.000000 -2.999990
vt 0.809560 0.353526
vt 0.892196 0.353526
vt 0.892196 0.560116
vt 0.809560 0.560116
vt 0.908642 0.522351
vt 0.908642 0.461122
vt 0.969871 0.461122
vt 0.969871 0.522351
vt 0.892256 0.560116
vt 0.809620 0.560116
vt 0.809620 0.353526
vt 0.892256 0.353526
vt 0.809369 0.353526
vt 0.892005 0.353526
vt 0.892005 0.560116
vt 0.809369 0.560116
vt 0.809734 0.353526
vt 0.892371 0.353526
vt 0.892371 0.560116
vt 0.809734 0.560116
vt 0.809540 0.477484
vt 0.891178 0.477484
vt 0.880973 0.491126
vt 0.819744 0.491126
vt 0.809406 0.477571
vt 0.891044 0.477571
vt 0.880839 0.491213
vt 0.819610 0.491213
vt 0.809768 0.477530
vt 0.891407 0.477530
vt 0.881202 0.491172
vt 0.819973 0.491172
vt 0.809499 0.477571
vt 0.891137 0.477571
vt 0.880932 0.491213
vt 0.819703 0.491213
vt 0.816922 0.506276
vt 0.883776 0.506276
vt 0.883776 0.522168
vt 0.816922 0.522168
vt 0.816948 0.506273
vt 0.883802 0.506273
vt 0.883802 0.522166
vt 0.816948 0.522166
vt 0.883928 0.521910
vt 0.817074 0.521910
vt 0.817074 0.506017
vt 0.883928 0.506017
vt 0.883878 0.521721
vt 0.817024 0.521721
vt 0.817024 0.505828
vt 0.883878 0.505828
vn -0.707107 -0.000000 0.707107
vn 0.707107 -0.000000 0.707107
vn 0.577349 0.577349 0.577349
vn -0.577349 0.577349 0.577349
vn 0.577349 0.577349 -0.577349
vn -0.577349 0.577349 -0.577349
vn 0.707107 0.000000 -0.707107
vn -0.707107 0.000000 -0.707107
vn -0.301492 0.904508 -0.301492
vn 0.301492 0.904508 -0.301492
vn -0.301492 0.904508 0.301492
vn 0.301492 0.904508 0.301492
s 1
f 1/1/1 2/2/2 3/3/3 4/4/4
f 5/5/5 6/6/6 7/7/4 8/8/3
f 9/9/6 10/10/5 11/11/7 12/12/8
f 2/13/2 11/14/7 10/15/5 3/16/3
f 12/17/8 1/18/1 4/19/4 9/20/6
f 4/21/4 3/22/3 13/23/9 14/24/10
f 3/25/3 10/26/5 15/27/11 13/28/9
f 10/29/5 9/30/6 16/31/12 15/32/11
f 9/33/6 4/34/4 14/35/10 16/36/12
f 14/37/10 13/38/9 6/39/6 5/40/5
f 13/41/9 15/42/11 7/43/4 6/44/6
f 15/45/11 16/46/12 8/47/3 7/48/4
f 16/49/12 14/50/10 5/51/5 8/52/3
