# Blender v2.69 (sub 0) OBJ File: ''
# www.blender.org
g Vase_A
v 0.000000 0.198281 0.000000
v -0.031330 0.199894 0.000000
v -0.022153 0.199894 0.022153
v -0.026595 0.155464 0.026595
v -0.037612 0.155464 0.000000
v -0.052381 0.128986 0.000000
v -0.037039 0.128986 0.037039
v 0.026595 0.155464 -0.026595
v 0.037612 0.155464 0.000000
v 0.052381 0.128986 0.000000
v 0.037039 0.128986 -0.037039
v 0.078822 0.068093 -0.078822
v 0.111471 0.068093 0.000000
v 0.098265 0.011793 0.000000
v 0.069484 0.011793 -0.069484
v -0.078822 0.068093 -0.078822
v 0.000000 0.068093 -0.111471
v 0.000000 0.011793 -0.098265
v -0.069484 0.011793 -0.069484
v -0.098265 0.011793 0.000000
v -0.111471 0.068093 0.000000
v 0.000000 0.000000 0.000000
v -0.026595 0.155464 -0.026595
v 0.000000 0.155464 -0.037612
v 0.000000 0.128986 -0.052381
v -0.037039 0.128986 -0.037039
v -0.060967 0.115809 -0.060967
v 0.000000 0.115809 -0.086221
v -0.086221 0.115809 0.000000
v 0.086221 0.115809 0.000000
v 0.060967 0.115809 -0.060967
v -0.069484 0.011793 0.069484
v -0.078822 0.068093 0.078822
v 0.069484 0.011793 0.069484
v 0.078822 0.068093 0.078822
v 0.000000 0.068093 0.111471
v 0.000000 0.011793 0.098265
v 0.026595 0.155464 0.026595
v 0.000000 0.155464 0.037612
v 0.000000 0.128986 0.052381
v 0.037039 0.128986 0.037039
v 0.000000 0.115809 0.086221
v 0.060967 0.115809 0.060967
v -0.060967 0.115809 0.060967
v 0.031330 0.199894 0.000000
v 0.022153 0.199894 -0.022153
v 0.053444 0.201899 -0.053444
v 0.075581 0.201899 0.000000
v 0.075134 0.173631 0.000000
v 0.053128 0.173631 -0.053128
v -0.053444 0.201899 -0.053444
v 0.000000 0.201899 -0.075581
v 0.000000 0.173631 -0.075134
v -0.053128 0.173631 -0.053128
v -0.036585 0.167414 -0.036585
v 0.000000 0.167414 -0.051739
v -0.051739 0.167414 0.000000
v -0.075134 0.173631 0.000000
v -0.075581 0.201899 0.000000
v 0.051739 0.167414 0.000000
v 0.036585 0.167414 -0.036585
v 0.000000 0.199894 -0.031330
v -0.022153 0.199894 -0.022153
v -0.027654 0.215285 -0.027654
v 0.000000 0.215285 -0.039108
v -0.039108 0.215285 0.000000
v 0.039108 0.215285 0.000000
v 0.027654 0.215285 -0.027654
v -0.053128 0.173631 0.053128
v -0.053444 0.201899 0.053444
v 0.053444 0.201899 0.053444
v 0.000000 0.201899 0.075581
v 0.000000 0.173631 0.075134
v 0.053128 0.173631 0.053128
v 0.036585 0.167414 0.036585
v 0.000000 0.167414 0.051739
v -0.036585 0.167414 0.036585
v 0.000000 0.199894 0.031330
v 0.022153 0.199894 0.022153
v 0.000000 0.215285 0.039108
v 0.027654 0.215285 0.027654
v -0.027654 0.215285 0.027654
vt 0.024902 0.490234
vt 0.034180 0.508301
vt 0.015625 0.511230
vt 0.007812 0.522461
vt 0.113281 0.522461
vt 0.113281 0.627930
vt 0.007812 0.627930
vt 0.015625 0.472168
vt 0.034180 0.469238
vt 0.042969 0.480957
vt 0.045898 0.499512
vt 0.019531 0.527832
vt 0.107422 0.527832
vt 0.107422 0.615723
vt 0.019531 0.615723
vt 0.006836 0.499512
vt 0.003906 0.480957
vn 0.051404 0.998451 -0.021294
vn -0.821237 0.458091 0.340180
vn 0.821237 0.458091 -0.340180
vn 0.902922 -0.211793 -0.374000
vn -0.374000 -0.211793 -0.902922
vn -0.902922 -0.211793 -0.374000
vn -0.119012 -0.991668 -0.049296
vn -0.049296 -0.991668 -0.119012
vn 0.374000 -0.211793 -0.902922
vn 0.049296 -0.991668 -0.119012
vn 0.119012 -0.991668 -0.049296
vn -0.340180 0.458091 -0.821237
vn -0.343798 0.439218 -0.829994
vn -0.829994 0.439218 -0.343798
vn -0.821237 0.458092 -0.340180
vn -0.358825 0.921495 -0.148632
vn -0.148632 0.921495 -0.358825
vn 0.829994 0.439218 -0.343798
vn 0.343798 0.439218 -0.829994
vn 0.340180 0.458091 -0.821237
vn 0.148632 0.921495 -0.358825
vn 0.358825 0.921495 -0.148632
vn -0.902922 -0.211793 0.374000
vn 0.374000 -0.211793 0.902922
vn 0.902922 -0.211793 0.374000
vn 0.119012 -0.991668 0.049296
vn 0.049296 -0.991668 0.119012
vn -0.374000 -0.211793 0.902922
vn -0.049296 -0.991668 0.119012
vn -0.119012 -0.991668 0.049296
vn 0.340179 0.458091 0.821237
vn 0.343798 0.439217 0.829995
vn 0.829994 0.439218 0.343798
vn 0.821237 0.458091 0.340180
vn 0.358825 0.921495 0.148632
vn 0.148632 0.921495 0.358825
vn -0.829994 0.439218 0.343798
vn -0.343798 0.439217 0.829995
vn -0.340179 0.458091 0.821237
vn -0.148632 0.921495 0.358825
vn -0.358825 0.921495 0.148632
vn -0.051404 0.998451 0.021294
vn 0.923783 -0.014606 -0.382638
vn -0.382638 -0.014606 -0.923783
vn -0.258427 -0.737560 -0.623876
vn -0.623875 -0.737560 -0.258427
vn -0.923783 -0.014606 -0.382638
vn -0.255385 -0.961035 -0.105783
vn -0.105783 -0.961035 -0.255384
vn 0.623875 -0.737560 -0.258427
vn 0.258427 -0.737560 -0.623876
vn 0.382638 -0.014606 -0.923783
vn 0.105783 -0.961035 -0.255385
vn 0.255385 -0.961035 -0.105783
vn 0.021294 0.998451 0.051405
vn -0.141279 0.929355 -0.341087
vn -0.341087 0.929355 -0.141279
vn 0.051404 0.998451 0.021294
vn 0.837115 0.423088 0.346749
vn 0.346749 0.423089 0.837115
vn 0.341087 0.929355 -0.141279
vn 0.141279 0.929355 -0.341087
vn -0.021294 0.998451 0.051405
vn -0.346749 0.423089 0.837115
vn -0.837115 0.423088 0.346749
vn -0.923783 -0.014606 0.382638
vn 0.382638 -0.014606 0.923783
vn 0.258428 -0.737561 0.623875
vn 0.623875 -0.737560 0.258427
vn 0.923783 -0.014606 0.382638
vn 0.255384 -0.961035 0.105782
vn 0.105783 -0.961035 0.255385
vn -0.623875 -0.737560 0.258427
vn -0.258428 -0.737561 0.623875
vn -0.382638 -0.014606 0.923783
vn -0.105783 -0.961035 0.255385
vn -0.255385 -0.961035 0.105782
vn -0.021294 0.998451 -0.051405
vn 0.141279 0.929355 0.341087
vn 0.341087 0.929354 0.141280
vn -0.051404 0.998451 -0.021294
vn -0.837115 0.423088 -0.346749
vn -0.346749 0.423089 -0.837115
vn -0.341087 0.929354 0.141279
vn -0.141279 0.929355 0.341087
vn 0.021294 0.998451 -0.051405
vn 0.346749 0.423089 -0.837115
vn 0.837115 0.423088 -0.346749
s off
f 1/1/1 2/2/1 3/3/1
f 4/4/2 5/5/2 6/6/2 7/7/2
f 8/4/3 9/5/3 10/6/3 11/7/3
f 12/4/4 13/5/4 14/6/4 15/7/4
f 16/4/5 17/5/5 18/6/5 19/7/5
f 20/4/6 21/5/6 16/6/6 19/7/6
f 22/4/7 20/5/7 19/6/7
f 18/4/8 22/5/8 19/6/8
f 17/4/9 12/5/9 15/6/9 18/7/9
f 15/4/10 22/5/10 18/6/10
f 14/4/11 22/5/11 15/6/11
f 23/4/12 24/5/12 25/6/12 26/7/12
f 27/4/13 28/5/13 17/6/13 16/7/13
f 21/4/14 29/5/14 27/6/14 16/7/14
f 6/4/15 5/5/15 23/6/15 26/7/15
f 29/4/16 6/5/16 26/6/16 27/7/16
f 25/4/17 28/5/17 27/6/17 26/7/17
f 30/4/18 13/5/18 12/6/18 31/7/18
f 12/4/19 17/5/19 28/6/19 31/7/19
f 24/4/20 8/5/20 11/6/20 25/7/20
f 11/4/21 31/5/21 28/6/21 25/7/21
f 10/4/22 30/5/22 31/6/22 11/7/22
f 21/4/23 20/5/23 32/6/23 33/7/23
f 34/4/24 35/5/24 36/6/24 37/7/24
f 14/4/25 13/5/25 35/6/25 34/7/25
f 22/4/26 14/5/26 34/6/26
f 22/4/27 34/5/27 37/6/27
f 37/4/28 36/5/28 33/6/28 32/7/28
f 22/4/29 37/5/29 32/6/29
f 20/4/30 22/5/30 32/6/30
f 38/4/31 39/5/31 40/6/31 41/7/31
f 42/4/32 36/5/32 35/6/32 43/7/32
f 35/4/33 13/5/33 30/6/33 43/7/33
f 9/4/34 38/5/34 41/6/34 10/7/34
f 41/4/35 43/5/35 30/6/35 10/7/35
f 40/4/36 42/5/36 43/6/36 41/7/36
f 29/4/37 21/5/37 33/6/37 44/7/37
f 33/4/38 36/5/38 42/6/38 44/7/38
f 39/4/39 4/5/39 7/6/39 40/7/39
f 7/4/40 44/5/40 42/6/40 40/7/40
f 6/4/41 29/5/41 44/6/41 7/7/41
f 1/1/42 45/8/42 46/9/42
f 47/4/43 48/5/43 49/6/43 50/7/43
f 51/4/44 52/5/44 53/6/44 54/7/44
f 55/4/45 56/5/45 24/6/45 23/7/45
f 5/4/46 57/5/46 55/6/46 23/7/46
f 58/4/47 59/5/47 51/6/47 54/7/47
f 57/4/48 58/5/48 54/6/48 55/7/48
f 53/4/49 56/5/49 55/6/49 54/7/49
f 60/4/50 9/5/50 8/6/50 61/7/50
f 8/4/51 24/5/51 56/6/51 61/7/51
f 52/4/52 47/5/52 50/6/52 53/7/52
f 50/4/53 61/5/53 56/6/53 53/7/53
f 49/4/54 60/5/54 61/6/54 50/7/54
f 1/1/55 62/10/55 63/11/55
f 64/4/56 65/5/56 52/6/56 51/7/56
f 59/4/57 66/5/57 64/6/57 51/7/57
f 2/2/58 1/1/58 63/11/58
f 66/12/59 2/13/59 63/14/59 64/15/59
f 62/12/60 65/13/60 64/14/60 63/15/60
f 67/4/61 48/5/61 47/6/61 68/7/61
f 47/4/62 52/5/62 65/6/62 68/7/62
f 1/1/63 46/9/63 62/10/63
f 46/12/64 68/13/64 65/14/64 62/15/64
f 45/12/65 67/13/65 68/14/65 46/15/65
f 59/4/66 58/5/66 69/6/66 70/7/66
f 71/4/67 72/5/67 73/6/67 74/7/67
f 39/4/68 38/5/68 75/6/68 76/7/68
f 38/4/69 9/5/69 60/6/69 75/7/69
f 49/4/70 48/5/70 71/6/70 74/7/70
f 60/4/71 49/5/71 74/6/71 75/7/71
f 73/4/72 76/5/72 75/6/72 74/7/72
f 57/4/73 5/5/73 4/6/73 77/7/73
f 4/4/74 39/5/74 76/6/74 77/7/74
f 73/4/75 72/5/75 70/6/75 69/7/75
f 77/4/76 76/5/76 73/6/76 69/7/76
f 58/4/77 57/5/77 77/6/77 69/7/77
f 1/1/78 78/16/78 79/17/78
f 80/4/79 72/5/79 71/6/79 81/7/79
f 71/4/80 48/5/80 67/6/80 81/7/80
f 1/1/81 79/17/81 45/8/81
f 79/12/82 81/13/82 67/14/82 45/15/82
f 78/12/83 80/13/83 81/14/83 79/15/83
f 66/4/84 59/5/84 70/6/84 82/7/84
f 70/4/85 72/5/85 80/6/85 82/7/85
f 1/1/86 3/3/86 78/16/86
f 3/12/87 82/13/87 80/14/87 78/15/87
f 2/12/88 66/13/88 82/14/88 3/15/88
