# Blender v2.69 (sub 0) OBJ File: ''
# www.blender.org
g Wall_Short
v -1.500000 -0.000000 0.400000
v 1.500000 -0.000000 0.400000
v 1.500000 0.800000 0.400000
v -1.500000 0.800000 0.400000
v 1.500000 0.800000 -0.400000
v -1.500000 0.800000 -0.400000
v 1.500000 0.000000 -0.400000
v -1.500000 0.000000 -0.400000
vt 0.520020 0.720703
vt 0.381348 0.720703
vt 0.381348 0.683594
vt 0.520020 0.683594
vt 0.381348 0.646484
vt 0.520020 0.646484
vt 0.381348 0.609375
vt 0.520020 0.609375
vt 0.343750 0.720703
vt 0.343750 0.683594
vt 0.557617 0.720703
vt 0.557617 0.683594
vn 0.000000 -0.000000 1.000000
vn 0.000000 1.000000 0.000000
vn 0.000000 0.000000 -1.000000
vn 1.000000 0.000000 0.000000
vn -1.000000 0.000000 0.000000
s off
f 1/1/1 2/2/1 3/3/1 4/4/1
f 4/4/2 3/3/2 5/5/2 6/6/2
f 6/6/3 5/5/3 7/7/3 8/8/3
f 2/2/4 7/9/4 5/10/4 3/3/4
f 8/11/5 1/1/5 4/4/5 6/12/5
