# Blender v2.69 (sub 0) OBJ File: ''
# www.blender.org
g Wall_A
v -2.500000 -0.000000 0.537131
v 2.500000 -0.000000 0.537131
v 2.500000 0.505224 0.537131
v -2.500000 0.505224 0.537131
v 2.500000 0.505224 -0.537131
v -2.500000 0.505224 -0.537131
v 2.500000 0.000000 -0.537131
v -2.500000 0.000000 -0.537131
v 1.932623 -0.000000 0.597423
v 2.906380 -0.000000 0.597423
v 2.906380 3.298713 0.597426
v 1.932623 3.298713 0.597426
v 2.906380 3.298713 -0.597420
v 1.932623 3.298713 -0.597420
v 2.906380 0.000000 -0.597423
v 1.932623 0.000000 -0.597423
v -2.906380 -0.000000 0.597423
v -1.932623 -0.000000 0.597423
v -1.932623 3.298713 0.597426
v -2.906380 3.298713 0.597426
v -1.932623 3.298713 -0.597420
v -2.906380 3.298713 -0.597420
v -1.932623 0.000000 -0.597423
v -2.906380 0.000000 -0.597423
v -2.500000 0.215346 0.288413
v 2.500000 0.215346 0.288413
v 2.500000 3.000000 0.288413
v -2.500000 3.000000 0.288413
v 2.500000 3.000000 -0.288413
v -2.500000 3.000000 -0.288413
v 2.500000 0.215346 -0.288413
v -2.500000 0.215346 -0.288413
v -2.500000 2.895949 0.537131
v 2.500000 2.895949 0.537131
v 2.500000 3.202147 0.537134
v -2.500000 3.202147 0.537134
v 2.500000 3.202147 -0.537128
v -2.500000 3.202147 -0.537128
v 2.500000 2.895949 -0.537131
v -2.500000 2.895949 -0.537131
vt 0.125488 0.645508
vt 0.336914 0.645508
vt 0.336914 0.670898
vt 0.125488 0.670898
vt 0.336914 0.696777
vt 0.125488 0.696777
vt 0.336914 0.752930
vt 0.125488 0.752930
vt 0.125488 0.594238
vt 0.336914 0.594238
vt 0.273926 0.600098
vt 0.343262 0.600098
vt 0.343262 0.669434
vt 0.273926 0.669434
vt 0.135254 0.600098
vt 0.204590 0.600098
vt 0.204590 0.669434
vt 0.135254 0.669434
vt 0.337891 0.779297
vt 0.289062 0.779297
vt 0.289062 0.561523
vt 0.337891 0.561523
vt 0.131836 0.639648
vt 0.177734 0.639648
vt 0.177734 0.693848
vt 0.131836 0.693848
vt 0.183105 0.561523
vt 0.230957 0.561523
vt 0.230957 0.779297
vt 0.183105 0.779297
vt 0.223145 0.639648
vt 0.223145 0.693848
vt 0.124023 0.779297
vt 0.124023 0.561523
vt 0.342285 0.784180
vt 0.559570 0.784180
vt 0.559570 0.998047
vt 0.342285 0.998047
vt 0.341309 0.857422
vt 0.538574 0.857422
vt 0.538574 0.875000
vt 0.341309 0.875000
vt 0.420410 0.892578
vt 0.420410 0.875000
vt 0.538574 0.892578
vt 0.783203 0.443359
vt 0.999512 0.443359
vt 0.999512 0.460449
vt 0.783203 0.460449
vt 0.999512 0.520996
vt 0.783203 0.520996
vt 0.999512 0.538574
vt 0.783203 0.538574
vt 0.783203 0.381836
vt 0.999512 0.381836
vt 0.625000 0.000000
vt 0.875000 0.000000
vt 0.875000 0.250000
vt 0.625000 0.250000
vt 0.125000 0.000000
vt 0.375000 0.000000
vt 0.375000 0.250000
vt 0.125000 0.250000
vn 0.000000 -0.000000 1.000000
vn 0.000000 1.000000 0.000000
vn 0.000000 0.000000 -1.000000
vn 0.000000 -1.000000 -0.000000
vn 1.000000 0.000000 0.000000
vn -1.000000 0.000000 0.000000
vn 0.000000 -0.000001 1.000000
vn 0.000000 0.000001 -1.000000
vn 0.000000 -0.000007 1.000000
vn 0.000000 0.000007 -1.000000
vn 1.000000 0.000001 0.000000
vn -1.000000 0.000001 0.000000
s off
f 1/1/1 2/2/1 3/3/1 4/4/1
f 4/4/2 3/3/2 5/5/2 6/6/2
f 6/6/3 5/5/3 7/7/3 8/8/3
f 2/2/4 1/1/4 8/9/4 7/10/4
f 2/11/5 7/12/5 5/13/5 3/14/5
f 8/15/6 1/16/6 4/17/6 6/18/6
f 9/19/7 10/20/7 11/21/7 12/22/7
f 12/23/2 11/24/2 13/25/2 14/26/2
f 14/27/8 13/28/8 15/29/8 16/30/8
f 10/24/4 9/31/4 16/32/4 15/25/4
f 10/20/5 15/29/5 13/28/5 11/21/5
f 16/30/6 9/33/6 12/34/6 14/27/6
f 17/19/7 18/20/7 19/21/7 20/22/7
f 20/23/2 19/24/2 21/25/2 22/26/2
f 22/27/8 21/28/8 23/29/8 24/30/8
f 18/24/4 17/31/4 24/32/4 23/25/4
f 18/20/5 23/29/5 21/28/5 19/21/5
f 24/30/6 17/33/6 20/34/6 22/27/6
f 25/35/1 26/36/1 27/37/1 28/38/1
f 28/39/2 27/40/2 29/41/2 30/42/2
f 30/37/3 29/38/3 31/35/3 32/36/3
f 26/41/4 25/42/4 32/39/4 31/40/4
f 26/43/5 31/44/5 29/41/5 27/45/5
f 32/43/6 25/44/6 28/41/6 30/45/6
f 33/46/9 34/47/9 35/48/9 36/49/9
f 36/49/2 35/48/2 37/50/2 38/51/2
f 38/51/10 37/50/10 39/52/10 40/53/10
f 34/47/4 33/46/4 40/54/4 39/55/4
f 34/56/11 39/57/11 37/58/11 35/59/11
f 40/60/12 33/61/12 36/62/12 38/63/12
