# Blender v2.69 (sub 0) OBJ File: ''
# www.blender.org
g Wheel
v 0.259609 -0.037103 -0.149885
v 0.299770 -0.037103 -0.000000
v 0.299770 0.037103 0.000000
v 0.259609 0.037103 -0.149885
v 0.149885 -0.037103 -0.259609
v 0.149885 0.037103 -0.259609
v 0.000000 -0.037103 -0.299770
v 0.000000 0.037103 -0.299770
v -0.149885 -0.037103 -0.259609
v -0.149885 0.037103 -0.259609
v -0.259609 -0.037103 -0.149885
v -0.259609 0.037103 -0.149885
v -0.299770 -0.037103 -0.000000
v -0.299770 0.037103 0.000000
v -0.259609 -0.037103 0.149885
v -0.259609 0.037103 0.149885
v -0.149885 -0.037103 0.259609
v -0.149885 0.037103 0.259609
v 0.000000 -0.037103 0.299770
v 0.000000 0.037103 0.299770
v 0.149885 -0.037103 0.259609
v 0.149885 0.037103 0.259609
v 0.259609 -0.037103 0.149885
v 0.259609 0.037103 0.149885
v 0.333078 0.037103 0.000000
v 0.288454 0.037103 -0.166539
v 0.166539 0.037103 -0.288454
v 0.000000 0.037103 -0.333078
v -0.166539 0.037103 -0.288454
v -0.288454 0.037103 -0.166539
v -0.333078 0.037103 0.000000
v -0.288454 0.037103 0.166539
v -0.166539 0.037103 0.288454
v 0.000000 0.037103 0.333078
v 0.166539 0.037103 0.288454
v 0.288454 0.037103 0.166539
v 0.333078 -0.037103 -0.000000
v 0.288454 -0.037103 -0.166539
v 0.166539 -0.037103 -0.288454
v 0.000000 -0.037103 -0.333078
v -0.166539 -0.037103 -0.288454
v -0.288454 -0.037103 -0.166539
v -0.333078 -0.037103 -0.000000
v -0.288454 -0.037103 0.166539
v -0.166539 -0.037103 0.288454
v 0.000000 -0.037103 0.333078
v 0.166539 -0.037103 0.288454
v 0.288454 -0.037103 0.166539
v -0.007108 -0.007108 0.303067
v 0.007108 -0.007108 0.303067
v 0.007108 0.007108 0.303067
v -0.007108 0.007108 0.303067
v 0.007108 0.007108 -0.303067
v -0.007108 0.007108 -0.303067
v 0.007108 -0.007108 -0.303067
v -0.007108 -0.007108 -0.303067
v -0.157689 -0.007108 0.258910
v -0.145378 -0.007108 0.266017
v -0.145378 0.007108 0.266017
v -0.157689 0.007108 0.258910
v 0.157689 0.007108 -0.258910
v 0.145378 0.007108 -0.266017
v 0.157689 -0.007108 -0.258910
v 0.145378 -0.007108 -0.266017
v -0.266017 -0.007108 0.145378
v -0.258910 -0.007108 0.157689
v -0.258910 0.007108 0.157689
v -0.266017 0.007108 0.145378
v 0.266017 0.007108 -0.145378
v 0.258910 0.007108 -0.157689
v 0.266017 -0.007108 -0.145378
v 0.258910 -0.007108 -0.157689
v -0.303067 -0.007108 -0.007108
v -0.303067 -0.007108 0.007108
v -0.303067 0.007108 0.007108
v -0.303067 0.007108 -0.007108
v 0.303067 0.007108 0.007108
v 0.303067 0.007108 -0.007108
v 0.303067 -0.007108 0.007108
v 0.303067 -0.007108 -0.007108
v -0.258910 -0.007108 -0.157689
v -0.266017 -0.007108 -0.145378
v -0.266017 0.007108 -0.145378
v -0.258910 0.007108 -0.157689
v 0.258910 0.007108 0.157689
v 0.266017 0.007108 0.145378
v 0.258910 -0.007108 0.157689
v 0.266017 -0.007108 0.145378
v -0.145378 -0.007108 -0.266017
v -0.157689 -0.007108 -0.258910
v -0.157689 0.007108 -0.258910
v -0.145378 0.007108 -0.266017
v 0.145378 0.007108 0.266017
v 0.157689 0.007108 0.258910
v 0.145378 -0.007108 0.266017
v 0.157689 -0.007108 0.258910
vt 0.558594 0.450684
vt 0.558594 0.557129
vt 0.452148 0.557129
vt 0.452148 0.450684
vt 0.535645 0.475098
vt 0.535645 0.542480
vt 0.468262 0.542480
vt 0.468262 0.475098
vt 0.557129 0.449707
vt 0.557129 0.558105
vt 0.448730 0.558105
vt 0.448730 0.449707
vt 0.490723 0.459961
vt 0.509277 0.459961
vt 0.509277 0.479004
vt 0.490723 0.479004
vt 0.494629 0.500488
vt 0.549316 0.500488
vt 0.549316 0.555176
vt 0.494629 0.555176
vt 0.490723 0.500000
vt 0.509277 0.500000
vt 0.509277 0.520996
vt 0.490723 0.520996
vn -0.965927 -0.000000 0.258816
vn -0.707107 0.000000 0.707107
vn -0.258816 0.000000 0.965927
vn 0.258816 0.000000 0.965927
vn 0.707107 0.000000 0.707107
vn 0.965927 -0.000000 0.258816
vn 0.965927 0.000000 -0.258816
vn 0.707107 0.000000 -0.707107
vn 0.258816 0.000000 -0.965927
vn -0.258816 0.000000 -0.965927
vn -0.707107 0.000000 -0.707107
vn -0.965927 0.000000 -0.258816
vn 0.000000 1.000000 0.000000
vn 0.965926 0.000000 -0.258819
vn 0.258819 0.000000 -0.965926
vn -0.258819 0.000000 -0.965926
vn -0.965926 0.000000 -0.258819
vn -0.965926 -0.000000 0.258819
vn -0.258819 0.000000 0.965926
vn 0.258819 0.000000 0.965926
vn 0.965926 -0.000000 0.258819
vn -0.000000 -1.000000 -0.000000
vn 0.000000 0.000000 1.000000
vn 0.000000 0.000000 -1.000000
vn 1.000000 0.000000 0.000000
vn -1.000000 0.000000 0.000000
vn -0.499959 0.000000 0.866049
vn 0.499959 0.000000 -0.866049
vn 0.866025 0.000000 0.500000
vn -0.866025 0.000000 -0.500000
vn -0.866049 0.000000 0.499959
vn 0.866049 0.000000 -0.499959
vn 0.500000 0.000000 0.866025
vn -0.500000 0.000000 -0.866025
vn -0.866049 0.000000 -0.499959
vn 0.866049 0.000000 0.499959
vn -0.500000 0.000000 0.866025
vn 0.500000 0.000000 -0.866025
vn -0.499959 0.000000 -0.866049
vn 0.499959 0.000000 0.866049
vn -0.866025 0.000000 0.500000
vn 0.866025 0.000000 -0.500000
s off
f 1/1/1 2/2/1 3/3/1 4/4/1
f 5/1/2 1/2/2 4/3/2 6/4/2
f 7/1/3 5/2/3 6/3/3 8/4/3
f 9/1/4 7/2/4 8/3/4 10/4/4
f 11/1/5 9/2/5 10/3/5 12/4/5
f 13/1/6 11/2/6 12/3/6 14/4/6
f 15/1/7 13/2/7 14/3/7 16/4/7
f 17/1/8 15/2/8 16/3/8 18/4/8
f 19/1/9 17/2/9 18/3/9 20/4/9
f 21/1/10 19/2/10 20/3/10 22/4/10
f 23/1/11 21/2/11 22/3/11 24/4/11
f 2/1/12 23/2/12 24/3/12 3/4/12
f 4/5/13 3/6/13 25/7/13 26/8/13
f 6/5/13 4/6/13 26/7/13 27/8/13
f 8/5/13 6/6/13 27/7/13 28/8/13
f 10/5/13 8/6/13 28/7/13 29/8/13
f 12/5/13 10/6/13 29/7/13 30/8/13
f 14/5/13 12/6/13 30/7/13 31/8/13
f 16/5/13 14/6/13 31/7/13 32/8/13
f 18/5/13 16/6/13 32/7/13 33/8/13
f 20/5/13 18/6/13 33/7/13 34/8/13
f 22/5/13 20/6/13 34/7/13 35/8/13
f 24/5/13 22/6/13 35/7/13 36/8/13
f 3/5/13 24/6/13 36/7/13 25/8/13
f 26/9/14 25/10/14 37/11/14 38/12/14
f 27/9/8 26/10/8 38/11/8 39/12/8
f 28/9/15 27/10/15 39/11/15 40/12/15
f 29/9/16 28/10/16 40/11/16 41/12/16
f 30/9/11 29/10/11 41/11/11 42/12/11
f 31/9/17 30/10/17 42/11/17 43/12/17
f 32/9/18 31/10/18 43/11/18 44/12/18
f 33/9/2 32/10/2 44/11/2 45/12/2
f 34/9/19 33/10/19 45/11/19 46/12/19
f 35/9/20 34/10/20 46/11/20 47/12/20
f 36/9/5 35/10/5 47/11/5 48/12/5
f 25/9/21 36/10/21 48/11/21 37/12/21
f 2/5/22 1/6/22 38/7/22 37/8/22
f 1/5/22 5/6/22 39/7/22 38/8/22
f 40/5/22 39/6/22 5/7/22 7/8/22
f 41/5/22 40/6/22 7/7/22 9/8/22
f 42/5/22 41/6/22 9/7/22 11/8/22
f 43/5/22 42/6/22 11/7/22 13/8/22
f 44/5/22 43/6/22 13/7/22 15/8/22
f 45/5/22 44/6/22 15/7/22 17/8/22
f 46/5/22 45/6/22 17/7/22 19/8/22
f 47/5/22 46/6/22 19/7/22 21/8/22
f 48/5/22 47/6/22 21/7/22 23/8/22
f 37/5/22 48/6/22 23/7/22 2/8/22
f 49/13/23 50/14/23 51/15/23 52/16/23
f 52/17/13 51/18/13 53/19/13 54/20/13
f 54/21/24 53/22/24 55/23/24 56/24/24
f 56/17/22 55/18/22 50/19/22 49/20/22
f 50/17/25 55/18/25 53/19/25 51/20/25
f 56/17/26 49/18/26 52/19/26 54/20/26
f 57/13/27 58/14/27 59/15/27 60/16/27
f 60/17/13 59/18/13 61/19/13 62/20/13
f 62/21/28 61/22/28 63/23/28 64/24/28
f 64/17/22 63/18/22 58/19/22 57/20/22
f 58/17/29 63/18/29 61/19/29 59/20/29
f 64/17/30 57/18/30 60/19/30 62/20/30
f 65/13/31 66/14/31 67/15/31 68/16/31
f 68/17/13 67/18/13 69/19/13 70/20/13
f 70/21/32 69/22/32 71/23/32 72/24/32
f 72/17/22 71/18/22 66/19/22 65/20/22
f 66/17/33 71/18/33 69/19/33 67/20/33
f 72/17/34 65/18/34 68/19/34 70/20/34
f 73/13/26 74/14/26 75/15/26 76/16/26
f 76/17/13 75/18/13 77/19/13 78/20/13
f 78/21/25 77/22/25 79/23/25 80/24/25
f 80/17/22 79/18/22 74/19/22 73/20/22
f 74/17/23 79/18/23 77/19/23 75/20/23
f 80/17/24 73/18/24 76/19/24 78/20/24
f 81/13/35 82/14/35 83/15/35 84/16/35
f 84/17/13 83/18/13 85/19/13 86/20/13
f 86/21/36 85/22/36 87/23/36 88/24/36
f 88/17/22 87/18/22 82/19/22 81/20/22
f 82/17/37 87/18/37 85/19/37 83/20/37
f 88/17/38 81/18/38 84/19/38 86/20/38
f 89/13/39 90/14/39 91/15/39 92/16/39
f 92/17/13 91/18/13 93/19/13 94/20/13
f 94/21/40 93/22/40 95/23/40 96/24/40
f 96/17/22 95/18/22 90/19/22 89/20/22
f 90/17/41 95/18/41 93/19/41 91/20/41
f 96/17/42 89/18/42 92/19/42 94/20/42
